<?xml version="1.0" standalone="no"?>
<!DOCTYPE svg PUBLIC "-//W3C//DTD SVG 20010904//EN"
 "http://www.w3.org/TR/2001/REC-SVG-20010904/DTD/svg10.dtd">
<svg version="1.0" xmlns="http://www.w3.org/2000/svg"
 width="700.000000pt" height="700.000000pt" viewBox="0 0 700.000000 700.000000"
 preserveAspectRatio="xMidYMid meet">
<metadata>
Created by potrace 1.14, written by Peter Selinger 2001-2017
</metadata>
<g transform="translate(0.000000,700.000000) scale(0.100000,-0.100000)"
fill="#000000" stroke="none">
<path d="M5565 6077 l16 -28 -23 12 c-13 7 -29 12 -35 11 -7 -2 -13 3 -13 10
0 10 -3 9 -9 -1 -8 -12 -12 -12 -25 -2 -21 17 -21 7 0 -13 14 -15 12 -16 -21
-10 -28 4 -35 3 -30 -7 5 -8 4 -10 -4 -5 -9 6 -9 11 0 22 6 8 9 17 5 21 -3 3
-6 1 -6 -5 0 -7 -7 -12 -15 -12 -8 0 -15 5 -15 12 0 6 -3 8 -6 5 -4 -4 -2 -12
4 -20 8 -10 6 -13 -8 -13 -10 0 -16 4 -14 8 3 4 -2 8 -11 8 -9 0 -14 -4 -10
-9 3 -5 1 -12 -4 -16 -6 -3 -8 3 -6 15 2 11 -1 23 -7 26 -7 4 -8 2 -4 -4 4 -7
-7 -11 -36 -10 -62 0 -70 -1 -63 -11 9 -15 -15 -25 -28 -12 -9 9 -8 11 6 6 28
-12 19 2 -13 19 -17 8 -28 10 -25 5 4 -5 -3 -9 -14 -9 -15 0 -19 -5 -15 -17 5
-15 4 -15 -4 -3 -7 9 -7 19 -2 25 7 8 5 12 -5 12 -8 0 -12 -4 -9 -9 3 -4 0 -8
-6 -8 -6 0 -9 -4 -5 -9 3 -5 1 -12 -4 -16 -6 -3 -8 3 -6 15 2 11 -1 23 -7 26
-7 4 -8 2 -4 -4 4 -7 -7 -11 -36 -10 -62 0 -70 -1 -63 -11 9 -15 -15 -25 -28
-12 -9 9 -8 11 6 6 28 -12 19 2 -13 19 -17 8 -28 10 -25 5 4 -5 -3 -9 -14 -9
-15 0 -19 -5 -15 -17 5 -15 4 -15 -4 -3 -7 9 -7 19 -2 25 7 8 5 12 -5 12 -8 0
-12 -4 -9 -9 3 -4 0 -8 -6 -8 -6 0 -9 -4 -5 -9 3 -5 1 -12 -4 -16 -6 -3 -8 3
-6 15 2 11 -1 23 -7 26 -7 5 -8 2 -3 -5 5 -9 -1 -11 -25 -8 -24 4 -30 2 -26
-8 6 -15 -31 -12 -47 4 -5 5 -16 7 -23 4 -8 -3 -14 1 -14 8 0 11 -2 11 -9 0
-8 -12 -12 -12 -25 -2 -20 17 -21 7 -1 -12 13 -13 9 -15 -31 -12 -25 1 -50 7
-56 13 -6 6 -17 8 -24 5 -8 -3 -14 1 -14 8 0 11 -2 11 -9 0 -8 -12 -12 -12
-25 -2 -20 17 -21 7 -1 -12 12 -13 10 -14 -15 -13 -15 0 -26 4 -23 9 2 4 9 4
15 1 6 -4 8 -3 5 2 -6 11 -53 11 -64 1 -12 -13 -26 -7 -14 6 8 10 7 14 -4 14
-8 0 -12 -4 -9 -9 3 -4 -2 -8 -10 -8 -9 0 -16 6 -16 13 0 9 -2 9 -9 -1 -4 -8
-11 -13 -15 -13 -20 3 -25 -1 -20 -16 5 -15 4 -15 -4 -3 -7 9 -7 19 -2 25 7 8
5 12 -5 12 -8 0 -12 -4 -9 -9 3 -4 0 -8 -6 -8 -6 0 -9 -4 -5 -9 3 -5 1 -12 -4
-16 -6 -3 -8 3 -6 15 2 11 -1 23 -7 26 -7 4 -8 2 -4 -4 4 -7 -7 -11 -36 -10
-62 0 -68 -1 -65 -13 1 -6 -4 -13 -11 -15 -7 -1 -8 0 -2 3 5 2 7 9 4 14 -3 6
-12 5 -22 -3 -9 -7 -13 -8 -10 -3 4 6 3 17 -3 25 -7 12 -9 10 -9 -7 0 -12 -4
-24 -9 -27 -5 -3 -8 1 -7 10 1 18 -39 30 -49 14 -3 -6 1 -7 9 -4 9 3 16 2 16
-2 0 -5 -20 -9 -44 -9 -24 0 -42 3 -39 8 2 4 10 4 16 0 7 -4 6 0 -2 10 -7 9
-19 17 -25 17 -6 0 -4 -5 4 -10 13 -8 12 -10 -3 -10 -10 0 -16 -4 -12 -9 3 -5
1 -12 -4 -16 -6 -3 -8 3 -6 15 2 11 -1 23 -7 26 -7 4 -8 2 -4 -4 4 -7 -7 -11
-36 -10 -62 0 -68 -1 -66 -13 2 -6 -4 -14 -12 -16 -13 -4 -13 -3 0 6 8 6 11
11 6 11 -5 0 -3 6 3 13 8 10 7 14 -4 14 -7 0 -13 -5 -12 -10 1 -5 -4 -12 -11
-14 -6 -3 -10 1 -9 9 2 7 2 10 0 6 -7 -12 -31 -9 -37 5 -3 6 -4 3 -1 -9 4 -14
0 -21 -9 -21 -9 0 -13 4 -10 9 3 4 -2 8 -11 8 -9 0 -14 -4 -10 -9 3 -5 1 -12
-4 -16 -6 -3 -8 3 -6 15 2 11 -1 23 -7 26 -7 4 -8 2 -4 -4 4 -7 -7 -11 -36
-10 -62 0 -70 -1 -63 -11 9 -15 -15 -25 -28 -12 -9 9 -8 11 6 6 28 -12 19 2
-13 19 -17 8 -28 10 -25 5 4 -5 -3 -9 -14 -9 -15 0 -19 -5 -15 -17 5 -15 4
-15 -4 -3 -7 9 -7 19 -2 25 7 8 5 12 -5 12 -8 0 -12 -4 -9 -9 3 -4 0 -8 -6 -8
-6 0 -9 -4 -5 -9 3 -5 1 -12 -4 -16 -6 -3 -8 3 -6 15 2 11 -1 23 -7 26 -7 4
-8 2 -4 -4 4 -7 -7 -11 -36 -10 -62 0 -70 -1 -63 -11 9 -15 -15 -25 -28 -12
-9 9 -8 11 6 6 28 -12 19 2 -13 19 -17 8 -28 10 -25 5 4 -5 -3 -9 -14 -9 -15
0 -19 -5 -15 -17 5 -15 4 -15 -4 -3 -7 9 -7 19 -2 25 7 8 5 12 -5 12 -8 0 -12
-4 -9 -9 3 -4 0 -8 -6 -8 -6 0 -9 -4 -5 -9 3 -5 1 -12 -4 -16 -6 -3 -8 3 -6
15 2 11 -1 23 -7 26 -7 5 -8 2 -3 -6 6 -10 3 -12 -13 -8 -12 4 -25 2 -28 -3
-8 -13 -24 -11 -20 4 1 6 1 9 -1 5 -7 -12 -31 -9 -37 5 -3 6 -4 3 -1 -9 4 -14
0 -21 -9 -21 -9 0 -13 4 -10 9 3 4 -2 8 -11 8 -9 0 -14 -4 -10 -9 3 -5 1 -12
-4 -16 -6 -3 -8 3 -6 15 2 11 -1 23 -7 26 -7 4 -8 2 -4 -4 4 -7 -7 -11 -36
-10 -62 0 -70 -1 -63 -11 9 -15 -15 -25 -28 -12 -9 9 -8 11 6 6 28 -12 19 2
-13 19 -17 8 -28 10 -25 5 4 -5 -3 -9 -14 -9 -15 0 -19 -5 -15 -17 5 -15 4
-15 -4 -3 -7 9 -7 19 -2 25 7 8 5 12 -5 12 -8 0 -12 -4 -9 -9 3 -4 0 -8 -6 -8
-6 0 -9 -4 -5 -9 3 -5 1 -12 -4 -16 -6 -3 -8 3 -6 15 2 11 -1 23 -7 26 -7 4
-8 2 -4 -4 4 -7 -7 -11 -36 -10 -62 0 -70 -1 -63 -11 9 -15 -15 -25 -28 -12
-9 9 -8 11 6 6 28 -12 19 2 -13 19 -17 8 -28 10 -25 5 4 -5 -3 -9 -14 -9 -15
0 -19 -5 -15 -17 5 -15 4 -15 -4 -3 -7 9 -7 19 -2 25 7 8 5 12 -5 12 -8 0 -12
-4 -9 -9 3 -4 0 -8 -6 -8 -6 0 -9 -4 -5 -9 3 -5 1 -12 -4 -16 -6 -3 -8 3 -6
15 2 11 -1 23 -7 26 -7 4 -8 2 -4 -4 5 -8 -7 -11 -39 -9 -26 2 -49 -1 -51 -5
-3 -4 -10 -8 -16 -8 -7 0 -7 4 1 13 8 10 7 14 -4 14 -8 0 -12 -4 -9 -9 3 -4
-2 -8 -10 -8 -9 0 -16 6 -16 13 0 9 -2 9 -9 -1 -4 -8 -11 -13 -15 -13 -20 3
-25 -1 -20 -16 5 -15 4 -15 -4 -3 -7 9 -7 19 -2 25 7 8 5 12 -5 12 -8 0 -12
-4 -9 -9 3 -4 0 -8 -6 -8 -6 0 -9 -4 -5 -9 3 -5 1 -12 -4 -16 -6 -3 -8 3 -6
15 2 11 -1 23 -7 26 -7 4 -8 2 -4 -4 4 -7 -7 -11 -36 -10 -62 0 -68 -1 -65
-13 1 -6 -4 -13 -11 -15 -7 -1 -8 0 -2 3 5 2 7 9 4 14 -3 6 -12 5 -22 -3 -9
-7 -13 -8 -10 -3 4 6 3 17 -3 25 -7 12 -9 10 -9 -7 0 -12 -4 -24 -9 -27 -5 -3
-8 1 -7 10 1 18 -39 30 -49 14 -3 -6 1 -7 9 -4 9 3 16 2 16 -2 0 -5 -20 -9
-44 -9 -24 0 -42 3 -39 8 2 4 10 4 16 0 7 -4 6 0 -2 10 -7 9 -19 17 -25 17 -6
0 -4 -5 4 -10 13 -8 12 -10 -3 -10 -10 0 -16 -4 -12 -9 3 -5 1 -12 -4 -16 -6
-3 -8 3 -6 15 2 11 -1 23 -7 26 -7 4 -8 2 -4 -4 4 -7 -7 -11 -36 -10 -62 0
-70 -1 -63 -11 9 -16 -15 -24 -30 -11 -8 7 -15 9 -15 6 0 -4 -10 -1 -23 6 -12
7 -28 11 -34 10 -7 -2 -13 3 -13 10 0 10 -3 9 -9 -1 -8 -12 -12 -12 -25 -2
-20 17 -21 7 -1 -12 13 -13 9 -15 -31 -12 -25 1 -50 7 -56 13 -6 6 -17 8 -24
5 -8 -3 -14 1 -14 8 0 11 -2 11 -9 0 -8 -12 -12 -12 -25 -2 -21 17 -21 7 0
-13 14 -15 12 -16 -21 -10 -28 4 -35 3 -30 -7 5 -8 4 -10 -4 -5 -9 6 -9 11 0
22 6 8 9 17 5 21 -3 3 -6 1 -6 -5 0 -7 -7 -12 -15 -12 -8 0 -15 5 -15 12 0 6
-3 8 -6 5 -4 -4 -2 -12 4 -20 8 -10 6 -13 -8 -13 -10 0 -16 4 -14 8 3 4 -2 8
-10 8 -10 0 -13 -7 -11 -20 2 -11 0 -18 -5 -15 -5 3 -7 14 -5 25 2 11 -1 23
-7 26 -6 4 -8 3 -5 -3 4 -7 -7 -11 -32 -10 -23 1 -37 5 -34 10 4 6 1 7 -6 2
-9 -5 -10 -10 -2 -18 6 -6 11 -16 11 -21 0 -6 -10 3 -21 19 -12 17 -19 22 -15
13 3 -10 1 -20 -4 -23 -6 -4 -10 1 -10 9 0 10 -6 13 -17 9 -12 -5 -14 -3 -8 8
8 12 6 12 -8 0 -9 -7 -17 -10 -17 -6 0 4 -7 2 -15 -5 -8 -7 -13 -16 -10 -20 9
-15 -16 -22 -31 -9 -13 10 -17 10 -24 -1 -5 -8 -7 -17 -4 -21 2 -4 -3 -10 -11
-13 -13 -5 -14 -2 -4 15 8 16 8 24 -1 33 -8 8 -9 6 -4 -8 6 -15 4 -17 -6 -11
-9 6 -11 4 -5 -5 6 -9 4 -12 -7 -8 -8 4 -15 0 -15 -8 0 -7 5 -10 11 -7 6 4 5
0 -2 -9 -7 -9 -23 -15 -34 -13 -12 3 -26 1 -32 -3 -6 -3 -18 -7 -26 -7 -8 0
-14 -6 -12 -14 2 -9 -3 -11 -13 -7 -9 3 -13 2 -10 -4 12 -19 -6 -32 -23 -18
-15 11 -15 11 -5 -3 7 -9 9 -20 5 -25 -4 -4 1 -2 11 5 15 12 17 12 11 -4 -5
-12 -15 -16 -35 -13 -23 4 -26 2 -18 -9 6 -7 16 -10 21 -7 6 4 4 -4 -3 -17 -7
-13 -13 -28 -14 -32 0 -4 -7 -12 -15 -17 -8 -5 -11 -10 -6 -10 5 0 2 -8 -8
-19 -9 -10 -15 -24 -13 -32 2 -8 2 -11 0 -6 -3 4 -10 4 -15 1 -6 -4 -9 -3 -5
2 3 5 -1 18 -9 29 -8 10 -14 14 -14 8 0 -7 5 -15 10 -18 6 -4 7 -12 3 -18 -17
-28 -10 -43 20 -38 4 0 7 -4 7 -9 0 -13 -16 -13 -43 1 l-22 12 20 -20 c11 -11
24 -18 29 -15 5 3 6 0 2 -6 -5 -8 -13 -9 -25 -3 -13 7 -18 6 -18 -4 0 -8 3
-12 7 -10 4 2 16 -3 26 -11 10 -9 13 -13 6 -9 -8 4 -11 -1 -8 -17 2 -13 9 -22
16 -20 6 1 9 -2 5 -8 -3 -6 -10 -8 -15 -5 -5 3 -12 -4 -15 -16 -6 -17 -9 -19
-16 -8 -5 8 -9 9 -9 3 0 -6 8 -18 17 -25 10 -8 14 -9 10 -2 -4 6 -4 14 0 16 5
3 8 -15 8 -39 0 -24 -4 -44 -9 -44 -4 0 -5 7 -2 16 3 8 2 12 -4 9 -16 -10 -4
-50 14 -49 9 1 13 -2 10 -7 -3 -5 -15 -9 -27 -9 -17 0 -19 -2 -7 -9 8 -6 19
-7 25 -3 5 3 4 -1 -3 -10 -8 -10 -9 -19 -3 -22 5 -3 12 -1 14 4 3 6 4 5 3 -2
-2 -7 -9 -12 -15 -11 -12 3 -13 -3 -13 -65 1 -29 -3 -40 -10 -36 -6 4 -8 3 -4
-4 3 -6 15 -9 26 -7 12 2 18 0 15 -6 -4 -5 -11 -7 -16 -4 -5 4 -9 1 -9 -5 0
-6 -4 -9 -8 -6 -5 3 -9 -1 -9 -9 0 -10 4 -12 12 -5 6 5 16 5 25 -2 12 -8 12
-9 -2 -4 -16 5 -20 0 -17 -20 0 -4 -5 -11 -13 -15 -10 -7 -10 -9 0 -9 6 0 12
-7 12 -16 0 -8 -4 -13 -8 -10 -5 3 -9 -1 -9 -9 0 -11 4 -12 14 -4 9 8 13 8 13
1 0 -6 -4 -13 -8 -16 -10 -6 -8 -54 3 -63 4 -5 5 -3 1 4 -3 6 -3 14 1 16 5 3
9 -8 9 -23 1 -25 0 -27 -13 -15 -19 20 -29 19 -12 -1 10 -13 10 -17 -2 -25
-11 -7 -11 -9 0 -9 7 0 11 -6 8 -14 -3 -7 -1 -18 5 -24 6 -6 12 -31 13 -56 3
-40 1 -44 -12 -31 -19 20 -29 19 -12 -1 10 -13 10 -17 -2 -25 -11 -7 -11 -9 0
-9 7 0 11 -6 8 -14 -3 -7 -1 -18 4 -23 16 -16 19 -53 4 -47 -10 4 -12 -2 -8
-26 3 -24 1 -30 -8 -25 -7 5 -10 4 -5 -3 3 -6 15 -9 26 -7 12 2 18 0 15 -6 -4
-5 -11 -7 -16 -4 -5 4 -9 1 -9 -5 0 -6 -4 -9 -8 -6 -5 3 -9 -1 -9 -9 0 -10 4
-12 12 -5 6 5 16 5 25 -2 12 -8 12 -9 -2 -4 -13 4 -18 0 -18 -15 0 -11 -4 -18
-9 -14 -5 3 -3 -8 5 -25 17 -32 31 -41 19 -12 -5 13 -3 14 6 5 13 -13 3 -37
-12 -28 -10 7 -11 -1 -11 -63 1 -29 -3 -40 -10 -36 -6 4 -8 3 -4 -4 3 -6 15
-9 26 -7 12 2 18 0 15 -6 -4 -5 -11 -7 -16 -4 -5 4 -9 1 -9 -5 0 -6 -4 -9 -8
-6 -5 3 -9 -1 -9 -9 0 -10 4 -12 12 -5 6 5 16 5 25 -2 12 -8 12 -9 -2 -4 -13
4 -18 0 -18 -15 0 -11 -4 -18 -9 -14 -5 3 -3 -8 5 -25 17 -32 31 -41 19 -12
-5 13 -3 14 6 5 13 -13 3 -37 -12 -28 -10 7 -11 -1 -11 -63 1 -29 -3 -40 -10
-36 -6 4 -8 3 -4 -4 3 -6 15 -9 26 -7 12 2 18 0 15 -6 -4 -5 -11 -7 -16 -4 -5
4 -9 -1 -9 -10 0 -9 4 -14 8 -11 4 2 8 -4 8 -14 0 -14 -3 -16 -13 -8 -8 6 -16
8 -20 4 -3 -3 -1 -6 5 -6 7 0 12 -7 12 -15 0 -8 -5 -15 -12 -15 -6 0 -8 -3 -5
-6 4 -4 13 -1 21 5 11 9 16 9 22 0 5 -8 3 -9 -5 -4 -10 5 -11 -2 -7 -30 6 -33
5 -35 -10 -21 -20 21 -30 21 -13 0 10 -13 10 -17 -2 -25 -11 -7 -11 -9 0 -9 7
0 11 -6 8 -14 -3 -7 -1 -18 5 -24 6 -6 12 -31 13 -56 3 -40 1 -44 -12 -31 -19
20 -29 19 -12 -1 10 -13 10 -17 -2 -25 -10 -6 -11 -9 -1 -9 7 0 12 -6 10 -12
-1 -7 3 -23 10 -35 7 -13 10 -23 6 -23 -3 0 -1 -7 6 -15 13 -15 5 -39 -11 -30
-10 7 -11 -1 -11 -63 1 -29 -3 -40 -10 -36 -6 4 -8 3 -4 -4 3 -6 15 -9 26 -7
12 2 18 0 15 -6 -4 -5 -11 -7 -16 -4 -5 4 -9 -2 -9 -12 0 -15 -2 -16 -10 -3
-5 8 -10 10 -10 4 0 -6 8 -18 17 -25 10 -8 14 -9 10 -2 -4 6 -4 14 0 16 5 3 8
-15 8 -39 0 -24 -4 -44 -9 -44 -4 0 -5 7 -2 16 3 8 2 12 -4 9 -16 -10 -4 -50
14 -49 9 1 13 -2 10 -7 -3 -5 -15 -9 -27 -9 -17 0 -19 -2 -7 -9 8 -6 19 -7 25
-3 5 3 4 -1 -3 -10 -8 -10 -9 -19 -3 -22 5 -3 12 -1 14 4 3 6 4 5 3 -2 -2 -7
-9 -12 -15 -11 -12 3 -13 -3 -13 -65 1 -29 -3 -40 -10 -36 -6 4 -8 3 -4 -4 3
-6 15 -9 26 -7 12 2 18 0 15 -6 -4 -5 -11 -7 -16 -4 -5 4 -9 1 -9 -5 0 -6 -4
-9 -8 -6 -5 3 -9 -1 -9 -9 0 -10 4 -12 12 -5 6 5 16 5 25 -2 12 -8 12 -9 -2
-4 -16 5 -20 0 -17 -20 0 -4 -5 -11 -13 -15 -10 -7 -10 -9 0 -9 6 0 12 -7 12
-16 0 -8 -4 -13 -8 -10 -5 3 -9 -1 -9 -9 0 -11 4 -12 14 -4 9 8 13 8 13 1 0
-6 -4 -13 -8 -16 -4 -2 -7 -25 -5 -51 2 -32 -1 -44 -9 -39 -6 4 -8 3 -4 -4 3
-6 15 -9 26 -7 12 2 18 0 15 -6 -4 -5 -11 -7 -16 -4 -5 4 -9 1 -9 -5 0 -6 -4
-9 -8 -6 -5 3 -9 -1 -9 -9 0 -10 4 -12 12 -5 6 5 16 5 25 -2 12 -8 12 -9 -2
-4 -13 4 -18 0 -18 -15 0 -11 -4 -18 -9 -14 -5 3 -3 -8 5 -25 17 -32 31 -41
19 -12 -5 13 -3 14 6 5 13 -13 3 -37 -12 -28 -10 7 -11 -1 -11 -63 1 -29 -3
-40 -10 -36 -6 4 -8 3 -4 -4 3 -6 15 -9 26 -7 12 2 18 0 15 -6 -4 -5 -11 -7
-16 -4 -5 4 -9 1 -9 -5 0 -6 -4 -9 -8 -6 -5 3 -9 -1 -9 -9 0 -10 4 -12 12 -5
6 5 16 5 25 -2 12 -8 12 -9 -2 -4 -13 4 -18 0 -18 -15 0 -11 -4 -18 -9 -14 -5
3 -3 -8 5 -25 17 -32 31 -41 19 -12 -5 13 -3 14 6 5 13 -13 3 -37 -12 -28 -10
7 -11 -1 -11 -63 1 -29 -3 -40 -10 -36 -6 4 -8 3 -4 -4 3 -6 15 -9 26 -7 12 2
18 0 15 -6 -4 -5 -11 -7 -16 -4 -5 4 -9 -1 -9 -10 0 -9 4 -14 8 -11 5 3 9 -1
9 -10 0 -9 -7 -13 -21 -9 -12 3 -15 2 -8 -1 13 -6 16 -30 5 -37 -5 -2 -2 -2 5
-1 14 4 16 -12 3 -20 -5 -3 -7 -16 -3 -28 4 -16 2 -19 -8 -13 -8 5 -11 4 -6
-3 3 -6 15 -9 26 -7 12 2 18 0 15 -6 -4 -5 -11 -7 -16 -4 -5 4 -9 1 -9 -5 0
-6 -4 -9 -8 -6 -5 3 -9 -1 -9 -9 0 -10 4 -12 12 -5 6 5 16 5 25 -2 12 -8 12
-9 -2 -4 -13 4 -18 0 -18 -15 0 -11 -4 -18 -9 -14 -5 3 -3 -8 5 -25 17 -32 31
-41 19 -12 -5 13 -3 14 6 5 13 -13 3 -37 -12 -28 -10 7 -11 -1 -11 -63 1 -29
-3 -40 -10 -36 -6 4 -8 3 -4 -4 3 -6 15 -9 26 -7 12 2 18 0 15 -6 -4 -5 -11
-7 -16 -4 -5 4 -9 1 -9 -5 0 -6 -4 -9 -8 -6 -5 3 -9 -1 -9 -9 0 -10 4 -12 12
-5 6 5 16 5 25 -2 12 -8 12 -9 -2 -4 -13 4 -18 0 -18 -15 0 -11 -4 -18 -9 -14
-5 3 -3 -8 5 -25 17 -32 31 -41 19 -12 -5 13 -3 14 6 5 13 -13 3 -37 -12 -28
-10 7 -11 -1 -11 -63 1 -29 -3 -40 -10 -36 -6 4 -8 3 -4 -4 3 -6 15 -9 26 -7
12 2 18 0 15 -6 -4 -5 -11 -7 -16 -4 -5 4 -9 -1 -9 -10 0 -9 4 -14 8 -11 5 3
9 -1 9 -10 0 -9 -7 -13 -21 -9 -12 3 -15 2 -8 -1 13 -6 16 -30 5 -37 -5 -2 -2
-2 5 0 8 1 12 -3 9 -9 -2 -7 -9 -12 -14 -11 -5 1 -10 -5 -10 -12 0 -11 4 -12
14 -4 7 6 13 8 13 3 0 -5 5 -2 11 6 9 13 10 13 6 0 -2 -8 -10 -14 -16 -13 -12
3 -13 -3 -13 -65 1 -29 -3 -40 -10 -36 -6 4 -8 3 -4 -4 3 -6 15 -9 26 -7 12 2
18 0 15 -6 -4 -5 -11 -7 -16 -4 -5 4 -9 -1 -9 -10 0 -9 4 -14 9 -11 5 4 8 -2
6 -11 -2 -10 -4 -22 -4 -26 -1 -5 -5 -6 -9 -3 -5 3 -9 -1 -9 -8 0 -8 5 -12 12
-10 6 3 11 -4 11 -15 0 -16 -3 -18 -15 -8 -12 9 -13 9 -7 0 4 -7 4 -19 -1 -25
-12 -21 -12 -35 2 -35 7 0 12 8 10 19 -2 10 0 18 5 18 7 0 7 -19 1 -72 -1 -4
-9 -5 -18 -2 -10 4 -4 -3 12 -15 17 -11 25 -21 19 -21 -5 0 -15 5 -21 11 -8 8
-13 7 -18 -2 -5 -7 -4 -10 2 -6 5 3 9 -11 10 -34 1 -25 -3 -36 -10 -32 -6 3
-7 1 -3 -6 6 -9 11 -9 21 -1 10 8 15 8 21 -1 4 -7 3 -9 -3 -6 -6 4 -14 0 -17
-9 -9 -23 -8 -26 7 -18 6 4 9 4 5 -1 -4 -4 -3 -14 2 -20 7 -9 5 -17 -7 -26
-16 -13 -17 -12 -5 2 10 14 10 18 -4 23 -9 4 -19 4 -22 1 -3 -3 0 -5 6 -5 7 0
12 -5 12 -11 0 -5 -5 -7 -11 -4 -6 4 -5 -3 3 -14 11 -18 11 -23 -2 -31 -8 -5
-11 -10 -5 -10 5 0 18 10 30 23 11 13 16 17 11 10 -5 -8 -3 -20 5 -31 13 -15
12 -16 -2 -4 -14 10 -18 10 -23 -3 -3 -10 -2 -14 5 -10 15 10 7 -28 -10 -41
-11 -9 -11 -11 3 -11 9 0 17 4 17 9 1 4 2 12 3 17 0 5 5 13 9 18 5 4 7 1 5 -7
-1 -8 3 -14 10 -12 10 2 10 -2 2 -18 -13 -25 -21 -26 -14 -3 5 15 4 16 -5 3
-16 -22 -13 -33 7 -25 36 15 47 17 30 5 -17 -10 -27 -36 -10 -26 4 2 14 1 22
-4 13 -8 13 -11 1 -22 -11 -11 -13 -11 -6 1 6 10 4 12 -5 6 -9 -5 -11 -4 -6 3
5 8 2 10 -9 6 -14 -6 -14 -8 2 -20 10 -7 24 -14 31 -14 7 0 10 -5 7 -10 -4 -6
-10 -8 -15 -5 -5 3 -11 1 -15 -4 -3 -6 3 -8 15 -6 13 2 20 -1 20 -11 0 -8 -4
-13 -8 -10 -4 2 -14 0 -22 -5 -11 -7 -8 -8 12 -5 32 5 42 -2 26 -21 -8 -11 -7
-12 6 -7 19 7 19 9 5 37 -10 21 -10 21 5 3 9 -11 16 -14 16 -8 0 7 4 12 8 12
5 0 9 -7 9 -15 0 -8 -4 -12 -9 -9 -4 3 -8 1 -8 -4 0 -10 29 -26 42 -24 4 1 5
-5 2 -13 -4 -8 -1 -15 5 -15 6 0 11 -6 11 -12 -1 -7 -12 1 -26 17 l-25 30 12
-27 c12 -27 20 -32 46 -29 6 1 19 -9 27 -21 9 -12 16 -18 16 -12 0 6 -11 23
-25 38 -29 31 -30 33 -11 33 8 0 12 -6 8 -15 -3 -10 -1 -13 6 -8 6 3 13 -2 17
-13 3 -11 12 -18 19 -15 7 3 21 -2 30 -11 9 -9 16 -14 16 -10 0 3 14 -2 31
-11 26 -13 33 -14 40 -2 6 9 9 9 9 1 0 -6 -4 -15 -10 -18 -5 -3 -10 -11 -10
-17 0 -6 9 -1 20 12 11 13 20 19 20 14 0 -6 -4 -14 -10 -20 -6 -6 -3 -10 9
-10 13 0 17 5 13 16 -5 13 -3 13 11 1 9 -7 14 -18 10 -24 -3 -6 -1 -7 6 -3 6
4 9 12 6 17 -3 5 1 6 9 3 9 -3 14 -9 11 -13 -2 -4 2 -8 10 -8 13 0 13 2 1 16
-13 14 -12 16 10 17 13 1 24 -2 24 -8 0 -5 -6 -6 -12 -2 -9 5 -9 2 1 -9 15
-18 26 -23 16 -7 -9 14 8 12 25 -2 8 -7 7 -4 -3 8 -16 20 -16 21 5 19 13 -1
28 2 34 6 6 5 11 3 11 -5 0 -9 -8 -13 -20 -11 -16 4 -17 2 -6 -11 8 -10 15
-12 23 -4 12 12 29 13 22 1 -4 -5 8 -4 24 2 25 10 33 9 40 -3 5 -8 10 -10 10
-4 0 5 -6 16 -13 23 -10 11 -8 11 11 2 19 -10 28 -10 46 2 19 13 23 13 23 2 0
-8 -5 -11 -11 -8 -6 4 -5 -1 3 -10 12 -15 31 -15 31 -1 0 3 -5 2 -12 -2 -7 -4
-8 -3 -4 4 4 6 13 9 21 6 8 -4 12 -11 8 -17 -3 -6 -1 -7 6 -3 9 6 9 11 -1 24
-12 14 -10 14 10 3 13 -7 20 -17 15 -24 -4 -8 -1 -7 10 1 9 8 22 10 29 6 10
-6 11 -5 1 7 -10 12 -8 15 8 15 11 0 18 -5 15 -13 -3 -7 1 -10 9 -6 8 3 13 9
10 13 -9 14 15 23 29 11 7 -6 16 -7 21 -3 4 4 4 -4 1 -18 -4 -14 -4 -20 1 -14
11 14 45 28 62 25 8 -1 10 2 5 10 -4 8 -3 10 5 5 9 -6 9 -11 0 -22 -6 -8 -9
-17 -5 -21 3 -3 6 -2 6 4 0 6 11 11 25 11 15 0 22 -5 18 -12 -3 -6 0 -6 8 1
16 15 33 17 24 3 -10 -16 1 -11 16 7 12 14 12 16 0 8 -9 -5 -12 -4 -8 2 3 5
22 8 42 7 24 -2 33 0 29 8 -4 7 -3 8 5 4 9 -6 9 -11 0 -22 -6 -8 -9 -17 -5
-21 3 -3 6 -2 6 4 0 6 11 11 25 11 15 0 22 -5 18 -12 -3 -6 0 -6 8 1 16 15 33
17 24 3 -10 -16 1 -11 16 7 12 14 12 16 0 8 -9 -5 -12 -4 -7 3 4 7 15 8 30 2
13 -5 27 -6 31 -2 3 3 3 -2 0 -13 -6 -16 -5 -17 4 -5 10 13 12 13 21 0 5 -8
10 -10 10 -4 0 5 -6 16 -12 23 -11 11 -9 11 12 1 14 -7 29 -18 33 -24 6 -7 7
-4 3 6 -3 10 -1 18 5 18 6 0 8 4 5 8 -3 5 1 9 9 9 8 0 12 -3 10 -6 -2 -4 4
-15 12 -26 15 -20 15 -20 10 1 -5 23 0 24 41 10 12 -4 19 -12 16 -18 -4 -7 -2
-8 5 -4 6 4 9 11 7 15 -3 4 3 12 13 18 14 9 18 8 18 -3 0 -7 -3 -11 -7 -9 -4
2 -7 -2 -7 -10 0 -9 4 -11 11 -6 6 4 21 7 33 6 19 -1 21 1 10 13 -10 13 -9 14
10 4 22 -12 57 -6 48 7 -2 4 2 8 10 8 8 0 12 -3 10 -6 -2 -4 4 -15 12 -26 15
-20 15 -20 10 1 -5 23 0 24 41 10 12 -4 19 -12 16 -18 -4 -7 -2 -8 5 -4 6 4 9
11 7 15 -3 4 3 12 13 18 14 9 18 8 18 -3 0 -7 -3 -11 -7 -9 -4 2 -7 -2 -7 -10
0 -9 4 -11 11 -6 6 4 21 7 33 6 19 -1 21 1 10 13 -10 13 -9 14 11 3 19 -10 28
-10 48 4 14 9 23 11 22 4 -3 -13 30 -21 37 -9 3 5 13 6 22 3 12 -5 14 -3 8 7
-5 9 -4 11 4 6 9 -6 9 -11 0 -22 -6 -8 -9 -17 -5 -21 3 -3 6 -2 6 4 0 6 11 11
25 11 15 0 22 -5 18 -12 -3 -6 0 -6 8 2 16 14 33 16 24 2 -10 -16 1 -11 16 7
12 14 12 16 0 8 -9 -5 -12 -4 -8 2 3 5 22 8 42 7 24 -2 33 0 29 8 -4 7 -3 8 5
4 9 -6 9 -11 0 -22 -6 -8 -9 -17 -5 -21 3 -3 6 -2 6 4 0 6 11 11 25 11 15 0
22 -5 18 -12 -3 -6 0 -6 8 2 16 14 33 16 24 2 -10 -16 1 -11 16 7 12 14 12 16
0 8 -9 -5 -12 -4 -8 2 7 11 48 10 67 -2 6 -4 21 0 34 8 19 13 23 13 23 2 0 -8
-5 -11 -11 -8 -6 4 -5 -1 3 -10 12 -15 31 -15 31 -1 0 3 -5 2 -12 -2 -7 -4 -8
-3 -4 4 4 6 13 9 21 6 8 -4 13 -9 10 -13 -2 -4 2 -8 10 -8 12 0 12 4 -2 20
-20 23 -2 16 31 -12 11 -9 16 -10 12 -3 -9 16 6 16 24 -1 8 -6 7 -3 -3 9 -16
20 -16 21 5 19 13 -1 28 2 34 6 6 5 11 3 11 -5 0 -9 -8 -13 -20 -11 -15 4 -17
2 -7 -10 7 -8 17 -12 24 -8 20 13 86 14 86 1 0 -6 3 -8 6 -5 4 4 1 14 -7 23
-13 16 -12 16 9 5 19 -10 27 -10 46 2 19 13 23 13 23 2 0 -8 -5 -11 -11 -8 -6
4 -5 -1 3 -10 12 -15 31 -15 31 -1 0 3 -5 2 -12 -2 -7 -4 -8 -3 -4 4 4 6 13 9
21 6 8 -4 12 -11 8 -17 -3 -6 -1 -7 6 -3 9 6 9 11 -1 24 -12 14 -10 14 10 3
13 -7 20 -17 15 -24 -4 -8 -1 -7 10 1 9 8 22 10 29 6 10 -6 11 -5 1 7 -10 12
-8 15 8 15 11 0 18 -5 15 -13 -3 -7 1 -10 9 -6 8 3 13 9 10 13 -9 14 15 23 29
11 7 -6 16 -7 21 -3 4 4 4 -4 1 -18 -5 -17 -4 -21 2 -11 6 8 17 11 25 8 8 -3
20 0 27 6 10 9 11 9 6 0 -3 -6 -1 -15 5 -19 8 -4 9 -3 5 4 -4 7 -2 12 3 12 6
0 11 -5 11 -12 0 -6 3 -8 6 -5 4 4 1 14 -7 23 -13 16 -12 16 8 6 22 -12 57 -6
48 7 -2 4 2 8 9 8 7 0 13 -6 13 -13 0 -7 -5 -10 -11 -7 -6 4 -5 -1 3 -10 15
-19 35 -13 27 8 -5 14 22 13 44 0 6 -4 21 0 34 8 19 13 23 13 23 2 0 -8 -5
-11 -11 -8 -6 4 -5 -1 3 -10 12 -15 31 -15 31 -1 0 3 -5 2 -12 -2 -7 -4 -8 -3
-4 4 4 6 13 9 21 6 8 -4 12 -11 8 -17 -3 -6 -1 -7 6 -3 9 6 9 11 -1 24 -12 13
-10 14 9 4 22 -12 57 -6 48 7 -2 4 2 8 9 8 7 0 13 -6 13 -13 0 -7 -5 -10 -11
-7 -6 4 -5 -1 3 -10 15 -19 35 -13 27 8 -3 8 2 12 12 10 9 -2 20 -4 24 -4 4
-1 15 -9 24 -19 15 -14 17 -14 12 -1 -4 9 1 20 11 26 14 9 18 8 18 -3 0 -7 -5
-10 -11 -7 -6 4 -5 -1 3 -10 12 -15 31 -15 31 -1 0 3 -5 2 -12 -2 -7 -4 -8 -3
-4 4 4 6 13 9 21 6 8 -4 13 -9 10 -13 -2 -4 2 -8 10 -8 12 0 12 4 -2 20 -20
23 -3 16 32 -12 19 -16 19 -16 1 14 l-19 30 34 -30 c19 -16 28 -23 22 -15 -7
8 -13 17 -13 21 0 9 27 5 37 -6 5 -4 1 -4 -7 0 -13 8 -13 6 -1 -8 7 -9 17 -14
22 -11 14 8 11 16 -3 8 -7 -4 -9 -3 -5 1 10 12 39 16 32 5 -3 -5 0 -12 6 -16
8 -4 9 -3 5 4 -4 7 -2 12 3 12 6 0 11 -5 11 -12 0 -6 3 -8 6 -5 4 4 1 14 -7
23 -13 16 -12 16 8 6 22 -12 57 -6 48 7 -2 4 2 8 9 8 7 0 13 -6 13 -13 0 -7
-5 -10 -11 -7 -6 4 -5 -1 3 -10 15 -19 35 -13 27 8 -5 14 22 13 44 0 6 -4 21
0 34 8 19 13 23 13 23 2 0 -8 -5 -11 -11 -8 -6 4 -5 -1 3 -10 12 -15 31 -15
31 -1 0 3 -5 2 -12 -2 -7 -4 -8 -3 -4 4 4 6 13 9 21 6 8 -4 12 -11 8 -17 -3
-6 -1 -7 6 -3 9 6 9 11 -1 24 -12 13 -10 14 9 4 22 -12 57 -6 48 7 -2 4 2 8 9
8 7 0 13 -6 13 -13 0 -7 -5 -10 -11 -7 -6 4 -5 -1 3 -10 15 -19 35 -13 27 8
-3 8 2 12 12 10 9 -2 20 -4 24 -4 4 -1 15 -9 24 -18 15 -15 17 -15 12 -2 -4 9
1 20 11 26 14 9 18 8 18 -3 0 -7 -5 -10 -11 -7 -6 4 -5 -1 3 -10 12 -15 31
-15 31 -1 0 3 -5 2 -12 -2 -7 -4 -8 -3 -4 4 4 6 13 9 21 6 8 -4 13 -9 10 -13
-2 -4 2 -8 10 -8 12 0 12 4 -2 20 -20 23 -3 16 32 -12 19 -16 19 -16 1 14
l-19 30 34 -30 c19 -16 28 -23 22 -15 -7 8 -13 17 -13 21 0 9 27 5 37 -6 5 -4
1 -4 -7 0 -13 8 -13 6 -1 -8 7 -9 17 -14 22 -11 14 8 11 16 -3 8 -7 -4 -9 -3
-5 1 10 12 39 16 32 5 -3 -5 0 -12 6 -16 8 -4 9 -3 5 4 -4 7 -2 12 3 12 6 0
11 -5 11 -12 0 -6 3 -8 6 -5 4 4 1 14 -7 23 -13 16 -12 16 8 6 22 -12 57 -6
48 7 -2 4 2 8 9 8 7 0 13 -6 13 -13 0 -7 -5 -10 -11 -7 -6 4 -5 -1 3 -10 15
-19 35 -13 27 8 -5 14 22 13 44 0 6 -4 21 0 34 8 19 13 23 13 23 2 0 -8 -5
-11 -11 -8 -6 4 -5 -1 3 -10 12 -15 31 -15 31 -1 0 3 -5 2 -12 -2 -7 -4 -8 -3
-4 4 4 6 13 9 21 6 8 -4 12 -11 8 -17 -3 -6 -1 -7 6 -3 9 6 9 11 -1 24 -12 13
-10 14 9 4 12 -7 29 -9 37 -6 12 5 15 2 10 -12 -3 -12 1 -10 11 6 9 14 14 17
11 8 -3 -10 0 -20 6 -24 7 -4 8 -3 4 4 -8 13 6 17 18 5 3 -4 13 -8 22 -9 12
-2 13 1 3 12 -6 7 -15 12 -19 9 -5 -3 -11 -2 -14 3 -2 4 8 8 24 7 15 0 26 -3
23 -7 -2 -5 3 -8 12 -8 10 0 13 -5 9 -12 -5 -8 -1 -8 10 1 11 9 20 11 24 5 5
-7 15 -6 29 1 13 7 20 15 16 18 -3 4 -12 2 -20 -5 -11 -8 -17 -8 -26 2 -10 10
-9 12 4 7 9 -3 21 -1 27 5 6 6 12 6 16 -1 4 -5 14 -7 24 -4 14 5 15 3 5 -8 -7
-7 -13 -18 -13 -24 0 -5 5 -2 11 8 5 9 15 17 20 17 6 0 8 -4 4 -9 -3 -5 -1
-12 4 -15 11 -7 9 13 -3 32 -4 7 -5 16 -2 19 3 4 6 1 6 -5 0 -7 7 -12 16 -12
8 0 12 -4 9 -10 -3 -5 -2 -10 3 -10 5 0 14 11 20 25 9 19 9 25 -1 25 -8 0 -7
3 3 9 20 13 33 2 19 -16 -10 -12 -10 -16 2 -24 8 -5 19 -9 24 -9 6 0 5 4 -2 8
-9 6 -4 15 16 34 22 22 31 24 42 15 7 -7 5 -1 -6 12 l-20 24 23 -12 c12 -6 22
-8 23 -4 0 4 4 -1 9 -12 8 -17 9 -16 7 8 -2 16 -9 32 -16 36 -10 6 -9 10 4 14
9 4 14 3 11 -2 -3 -5 1 -12 10 -15 19 -7 44 10 41 27 -1 7 4 11 11 9 8 -1 11
2 7 8 -4 6 -13 5 -26 -3 -10 -6 -15 -13 -9 -15 6 -2 8 -8 4 -13 -9 -15 -20
-10 -21 9 -1 10 13 24 34 35 19 9 32 13 29 8 -4 -5 -1 -13 5 -17 8 -4 9 -3 5
4 -4 7 -1 12 6 12 7 0 2 9 -12 20 l-25 19 30 -5 30 -5 -25 18 c-14 10 -29 17
-33 15 -5 -1 -6 2 -2 8 5 8 11 7 21 -1 13 -10 18 -6 15 13 0 4 6 5 14 2 8 -3
24 4 37 17 13 12 17 19 11 15 -7 -4 -21 -2 -30 4 -17 11 -17 11 0 6 11 -3 17
0 17 10 0 8 -4 12 -10 9 -16 -10 -11 1 7 16 9 8 14 9 10 3 -4 -7 0 -18 9 -25
8 -7 14 -8 12 -3 -1 5 3 20 10 34 11 21 11 22 0 9 -11 -14 -17 -15 -31 -4 -9
7 -17 16 -17 20 0 4 6 2 14 -4 10 -9 16 -8 26 4 11 13 10 15 -6 9 -15 -4 -14
-1 6 17 18 16 20 20 7 16 -15 -6 -17 -3 -11 16 3 12 10 27 15 33 5 6 4 15 -3
22 -9 9 -9 12 3 12 12 0 12 2 -1 10 -13 9 -13 11 0 21 12 8 11 9 -5 5 -16 -5
-21 -1 -21 13 0 14 4 17 12 10 8 -7 15 -6 20 2 4 8 3 9 -4 5 -7 -4 -12 -2 -12
3 0 6 5 11 10 11 6 0 3 11 -5 24 -12 18 -13 26 -4 32 7 4 9 3 5 -4 -3 -6 -2
-13 3 -16 5 -4 8 0 6 6 -9 37 -18 57 -24 54 -3 -2 -6 13 -6 33 -1 33 2 37 20
33 20 -4 20 -4 0 11 -11 8 -23 13 -27 11 -4 -2 -9 0 -12 5 -7 10 13 9 31 -2 6
-4 15 -2 19 4 4 7 3 9 -2 6 -6 -3 -15 8 -22 25 -11 29 -10 30 7 14 15 -13 18
-14 18 -1 0 8 -4 12 -8 10 -4 -3 -9 2 -13 10 -3 8 0 17 6 21 7 5 8 2 3 -6 -5
-9 -4 -11 3 -6 15 9 15 11 -5 27 -9 8 -14 9 -10 3 3 -6 0 -11 -8 -11 -11 0
-11 4 2 23 8 13 12 28 8 34 -12 19 -13 60 -2 67 6 4 7 1 2 -8 -8 -12 -6 -12 8
0 18 15 23 26 7 16 -14 -9 -12 8 3 24 7 8 7 11 1 8 -7 -4 -11 3 -11 18 0 14 4
25 10 25 6 0 7 3 4 6 -4 4 -13 1 -21 -5 -11 -9 -16 -9 -22 0 -4 8 -3 9 4 5 8
-4 10 5 8 29 -1 20 2 39 7 42 6 4 7 1 2 -8 -8 -12 -6 -12 8 0 18 15 23 26 7
16 -14 -9 -12 8 3 24 7 8 7 11 1 8 -7 -4 -11 3 -11 18 0 14 4 25 10 25 6 0 7
3 4 6 -4 4 -13 1 -21 -5 -11 -9 -16 -9 -22 0 -5 8 -3 9 6 4 10 -6 12 -4 7 8
-3 9 -2 19 3 22 12 7 4 40 -9 37 -7 -1 -5 8 4 22 14 20 14 29 4 48 -11 20 -10
21 3 11 12 -11 14 -9 13 10 -1 12 2 27 6 33 5 7 3 11 -6 11 -8 0 -12 -3 -10
-7 2 -4 -2 -7 -9 -7 -11 0 -12 4 -3 18 6 10 14 16 18 13 4 -2 11 1 15 7 4 7 3
9 -4 5 -6 -3 -14 4 -18 16 -14 41 -13 46 10 41 21 -5 21 -5 1 10 -11 8 -22 14
-26 12 -3 -2 -6 2 -6 10 0 8 4 12 8 10 13 -9 19 26 7 48 -10 19 -9 20 4 10 12
-11 14 -9 13 10 -1 12 2 27 6 33 5 7 3 11 -6 11 -8 0 -12 -3 -10 -7 2 -4 -2
-7 -9 -7 -11 0 -12 4 -3 18 6 10 14 16 18 13 4 -2 11 1 15 7 4 7 3 9 -4 5 -6
-3 -14 4 -18 16 -14 41 -13 46 10 41 21 -5 21 -5 1 10 -11 8 -22 14 -26 12 -3
-2 -6 2 -6 10 0 8 4 12 9 9 4 -3 8 -1 8 5 0 6 8 8 18 5 10 -4 13 -3 6 3 -6 4
-17 19 -24 33 -10 21 -10 23 1 13 7 -7 18 -13 23 -13 6 0 4 5 -4 10 -13 9 -13
11 0 21 12 9 11 10 -5 4 -11 -3 -16 -3 -13 0 4 4 3 18 -2 31 -6 15 -5 26 2 30
7 4 8 3 4 -4 -11 -18 0 -14 15 5 10 11 10 14 2 9 -7 -4 -13 -3 -13 1 0 5 6 15
13 22 7 8 7 11 1 8 -7 -4 -11 3 -11 18 0 14 4 25 10 25 6 0 7 3 4 6 -4 4 -13
1 -21 -5 -11 -9 -16 -9 -22 0 -4 8 -3 9 4 5 8 -4 10 5 8 29 -1 20 2 39 7 42 6
3 7 1 3 -5 -11 -18 0 -14 15 5 10 11 10 14 2 9 -7 -4 -13 -3 -13 1 0 5 6 15
13 22 7 8 7 11 1 8 -7 -4 -11 3 -11 18 0 14 4 25 10 25 6 0 7 3 4 6 -4 4 -13
1 -21 -5 -11 -9 -16 -9 -22 0 -4 8 -3 9 4 5 8 -4 10 5 8 29 -1 20 2 39 7 42 6
3 7 1 3 -5 -11 -18 0 -14 15 5 10 11 10 14 2 9 -7 -4 -13 -3 -13 1 0 5 6 15
13 22 7 8 7 11 1 8 -7 -4 -11 3 -11 18 0 14 4 25 10 25 6 0 7 3 4 6 -4 4 -13
1 -21 -5 -11 -9 -16 -9 -22 0 -4 8 -3 9 4 5 8 -4 10 5 8 29 -1 20 2 39 7 42 6
3 7 1 3 -5 -11 -18 0 -14 15 5 10 11 10 14 2 9 -7 -4 -13 -3 -13 1 0 5 6 15
13 22 7 8 7 11 1 8 -7 -4 -11 3 -11 18 0 14 4 25 10 25 6 0 7 3 4 6 -4 4 -13
1 -21 -5 -11 -9 -16 -9 -22 0 -5 8 -3 9 6 4 10 -6 12 -4 7 8 -3 9 -2 19 3 22
12 7 4 40 -9 37 -7 -1 -5 8 4 22 14 20 14 29 4 48 -11 20 -10 21 3 11 12 -11
14 -9 13 10 -1 12 2 27 6 33 5 7 3 11 -6 11 -8 0 -12 -3 -10 -7 2 -4 -2 -7 -9
-7 -11 0 -12 4 -3 18 6 10 14 16 18 13 4 -2 11 1 15 7 4 7 3 9 -4 5 -6 -3 -14
4 -18 16 -14 41 -13 46 10 41 21 -5 21 -5 1 10 -11 8 -22 14 -26 12 -3 -2 -6
2 -6 10 0 8 4 12 8 10 13 -9 19 26 7 48 -10 19 -9 20 4 10 12 -11 14 -9 13 10
-1 12 2 27 6 33 5 7 3 11 -6 11 -8 0 -12 -3 -10 -7 2 -4 -2 -7 -9 -7 -11 0
-12 4 -3 18 6 10 14 16 18 13 4 -2 11 1 15 7 4 7 3 9 -4 5 -6 -3 -14 4 -18 16
-14 41 -13 46 10 41 21 -5 21 -5 1 10 -11 8 -22 14 -26 12 -3 -2 -6 2 -6 10 0
8 4 12 9 9 4 -3 8 -1 8 5 0 6 8 8 18 5 10 -4 13 -3 6 3 -6 4 -17 19 -24 33
-10 21 -10 23 1 13 7 -7 18 -13 24 -13 5 0 3 5 -5 10 -13 9 -13 11 0 21 12 9
11 10 -5 4 -11 -3 -16 -3 -13 0 4 4 3 18 -2 31 -6 15 -5 26 2 30 7 5 8 2 3 -7
-8 -12 -6 -12 8 0 18 15 23 26 7 16 -14 -9 -12 8 3 24 7 8 7 11 1 8 -7 -4 -11
3 -11 18 0 14 4 25 10 25 6 0 7 3 4 6 -4 4 -13 1 -21 -5 -11 -9 -16 -9 -22 0
-4 8 -3 9 4 5 8 -4 10 5 8 29 -1 20 2 39 7 42 6 3 7 1 3 -5 -11 -18 0 -14 15
5 10 11 10 14 2 9 -7 -4 -13 -3 -13 1 0 5 6 15 13 22 7 8 7 11 1 8 -7 -4 -11
3 -11 18 0 14 4 25 10 25 6 0 7 3 4 6 -4 4 -13 1 -21 -5 -11 -9 -16 -9 -22 0
-4 8 -3 9 4 5 8 -4 10 5 8 29 -1 20 2 39 7 42 6 3 7 1 3 -5 -11 -18 0 -14 15
5 10 11 10 14 2 9 -7 -4 -13 -3 -13 1 0 5 6 15 13 22 7 8 7 11 1 8 -7 -4 -11
3 -11 18 0 14 4 25 10 25 6 0 7 3 4 6 -4 4 -13 1 -21 -5 -11 -9 -16 -9 -22 0
-4 8 -3 9 4 5 8 -4 10 5 8 29 -1 20 2 39 7 42 6 3 7 1 3 -5 -11 -18 0 -14 15
5 10 11 10 14 2 9 -7 -4 -13 -3 -13 1 0 5 6 15 13 22 7 8 7 11 1 8 -7 -4 -11
3 -11 18 0 14 4 25 10 25 6 0 7 3 4 6 -4 4 -13 1 -21 -5 -11 -9 -16 -9 -22 0
-5 8 -3 9 6 4 10 -6 12 -4 7 8 -3 9 -2 19 3 22 12 7 4 40 -9 37 -7 -1 -5 8 4
22 14 20 14 29 4 48 -11 20 -10 21 3 11 12 -11 14 -9 13 10 -1 12 2 27 6 33 5
7 3 11 -6 11 -8 0 -12 -3 -10 -7 2 -4 -2 -7 -9 -7 -11 0 -12 4 -3 18 6 10 14
16 18 13 4 -2 11 1 15 7 4 7 3 9 -4 5 -6 -3 -14 4 -18 16 -14 41 -13 46 10 41
21 -5 21 -5 1 10 -11 8 -22 14 -26 12 -3 -2 -6 2 -6 10 0 8 4 12 8 10 13 -9
19 26 7 48 -10 19 -9 20 4 10 12 -11 14 -9 13 10 -1 12 2 27 6 33 5 7 3 11 -6
11 -8 0 -12 -3 -10 -7 2 -4 -2 -7 -9 -7 -11 0 -12 4 -3 18 6 10 14 16 18 13 4
-2 11 1 15 7 4 7 3 9 -4 5 -6 -3 -14 4 -18 16 -14 41 -13 46 10 41 21 -5 21
-5 1 10 -11 8 -22 14 -26 12 -3 -2 -6 2 -6 10 0 8 4 12 9 9 4 -3 8 -1 8 5 0 6
8 8 18 5 10 -4 13 -3 6 3 -6 4 -17 19 -24 33 -10 21 -10 23 1 13 7 -7 18 -13
24 -13 5 0 3 5 -5 10 -13 9 -13 11 0 21 12 9 11 10 -5 4 -11 -3 -16 -3 -13 0
4 4 3 18 -2 31 -6 15 -5 26 2 30 7 4 8 3 4 -4 -11 -18 0 -14 15 5 10 11 10 14
2 9 -7 -4 -13 -3 -13 1 0 5 6 15 13 22 7 8 7 11 1 8 -7 -4 -11 3 -11 18 0 14
4 25 10 25 6 0 7 3 4 6 -4 4 -13 1 -21 -5 -11 -9 -16 -9 -22 0 -4 8 -3 9 4 5
8 -4 10 5 8 29 -1 20 2 39 7 42 6 4 7 1 2 -8 -8 -12 -6 -12 8 0 18 15 23 26 7
16 -13 -8 -13 8 1 22 8 8 7 13 -2 18 -7 5 -10 4 -5 -3 7 -12 -32 -38 -42 -28
-3 3 0 6 7 6 6 0 16 12 21 26 6 14 15 22 21 18 6 -3 3 5 -6 20 -17 25 -34 38
-19 14 4 -7 3 -8 -5 -4 -9 6 -9 11 -1 21 8 10 8 15 -1 21 -8 5 -10 3 -4 -7 5
-8 4 -11 -1 -6 -9 8 -10 12 -13 40 -1 8 -4 7 -11 -3 -5 -8 -10 -10 -10 -4 0 6
3 13 6 17 8 8 35 -3 29 -13 -3 -4 1 -10 8 -13 7 -3 13 3 13 12 0 10 -5 18 -11
19 -5 1 -21 3 -35 5 -17 3 -25 10 -26 24 -1 11 -5 26 -9 33 -6 9 -4 11 5 5 9
-5 11 -4 6 3 -4 7 -1 12 6 12 7 0 1 8 -14 18 -16 9 -28 20 -28 24 0 5 -5 8
-10 8 -7 0 -7 -7 0 -22 10 -21 10 -22 -4 -5 -8 11 -12 25 -9 33 4 10 0 12 -11
8 -10 -4 -18 0 -22 11 -6 13 -9 14 -16 3 -6 -9 -7 -6 -3 10 7 24 -4 29 -24 10
-8 -8 -11 -8 -8 -2 4 7 0 17 -8 24 -8 7 -15 9 -15 5 0 -4 -7 -2 -15 5 -8 6
-20 8 -26 4 -7 -4 -9 -3 -5 4 3 6 -6 19 -22 30 -21 15 -32 18 -47 10 -19 -9
-20 -9 -1 6 10 8 23 13 27 10 5 -3 9 0 9 6 0 7 -7 9 -16 6 -9 -3 -28 -9 -42
-13 -15 -3 -30 -11 -34 -17 -4 -6 -6 4 -3 22 2 19 0 30 -6 26 -5 -3 -6 -10 -3
-16 5 -8 1 -9 -10 -5 -10 4 -20 7 -22 7 -3 0 -2 5 2 11 4 7 -1 7 -16 -1 -18
-10 -24 -9 -37 7 -11 13 -10 10 2 -10z m-4236 -29 c-5 -10 -11 -18 -12 -18 -2
0 -3 8 -4 18 -1 10 5 19 12 19 10 0 11 -5 4 -19z m346 12 c3 -5 1 -10 -4 -10
-6 0 -11 5 -11 10 0 6 2 10 4 10 3 0 8 -4 11 -10z m160 0 c3 -5 1 -10 -4 -10
-6 0 -11 5 -11 10 0 6 2 10 4 10 3 0 8 -4 11 -10z m140 1 c3 -5 2 -12 -3 -15
-5 -3 -9 1 -9 9 0 17 3 19 12 6z m320 0 c3 -5 2 -12 -3 -15 -5 -3 -9 1 -9 9 0
17 3 19 12 6z m159 -3 c-3 -4 -9 -8 -15 -8 -5 0 -9 4 -9 8 0 5 7 9 15 9 8 0
12 -4 9 -9z m84 -13 c-3 -3 -9 2 -12 12 -6 14 -5 15 5 6 7 -7 10 -15 7 -18z
m237 16 c3 -5 2 -12 -3 -15 -5 -3 -9 1 -9 9 0 17 3 19 12 6z m240 0 c3 -5 2
-12 -3 -15 -5 -3 -9 1 -9 9 0 17 3 19 12 6z m400 0 c3 -5 2 -12 -3 -15 -5 -3
-9 1 -9 9 0 17 3 19 12 6z m240 0 c3 -5 2 -12 -3 -15 -5 -3 -9 1 -9 9 0 17 3
19 12 6z m240 0 c3 -5 2 -12 -3 -15 -5 -3 -9 1 -9 9 0 17 3 19 12 6z m320 0
c3 -5 2 -12 -3 -15 -5 -3 -9 1 -9 9 0 17 3 19 12 6z m159 -3 c-3 -4 -9 -8 -15
-8 -5 0 -9 4 -9 8 0 5 7 9 15 9 8 0 12 -4 9 -9z m84 -13 c-3 -3 -9 2 -12 12
-6 14 -5 15 5 6 7 -7 10 -15 7 -18z m97 15 c3 -5 1 -10 -4 -10 -6 0 -11 5 -11
10 0 6 2 10 4 10 3 0 8 -4 11 -10z m160 0 c3 -5 1 -10 -4 -10 -6 0 -11 5 -11
10 0 6 2 10 4 10 3 0 8 -4 11 -10z m300 1 c3 -5 2 -12 -3 -15 -5 -3 -9 1 -9 9
0 17 3 19 12 6z m240 0 c3 -5 2 -12 -3 -15 -5 -3 -9 1 -9 9 0 17 3 19 12 6z
m260 -1 c3 -5 1 -10 -4 -10 -6 0 -11 5 -11 10 0 6 2 10 4 10 3 0 8 -4 11 -10z
m100 0 c3 -6 -1 -7 -9 -4 -18 7 -21 14 -7 14 6 0 13 -4 16 -10z m-3120 -18
c-3 -3 -11 0 -18 7 -9 10 -8 11 6 5 10 -3 15 -9 12 -12z m1920 0 c-3 -3 -11 0
-18 7 -9 10 -8 11 6 5 10 -3 15 -9 12 -12z m1355 -43 c0 -5 -4 -9 -8 -9 -5 0
-9 7 -9 15 0 8 4 12 9 9 4 -3 8 -9 8 -15z m-4550 -13 c0 -2 -7 -7 -16 -10 -8
-3 -12 -2 -9 4 6 10 25 14 25 6z m-101 -30 c9 -11 8 -14 -6 -12 -10 0 -18 -5
-19 -11 -3 -23 -4 -24 -15 -18 -7 5 -5 13 5 24 9 10 13 21 9 24 -3 4 -2 7 4 7
6 0 16 -6 22 -14z m31 4 c0 -5 -2 -10 -4 -10 -3 0 -8 5 -11 10 -3 6 -1 10 4
10 6 0 11 -4 11 -10z m4834 -89 c3 -5 -1 -11 -9 -14 -9 -4 -12 -1 -8 9 6 16
10 17 17 5z m86 -197 c0 -2 -11 -3 -24 -2 -14 1 -23 5 -20 9 4 7 44 0 44 -7z
m-5 -203 c3 -5 0 -13 -6 -17 -7 -4 -9 -3 -5 4 3 5 0 13 -6 15 -9 4 -10 6 -1 6
6 1 14 -3 18 -8z m-5105 -117 c0 -8 -19 -13 -24 -6 -3 5 1 9 9 9 8 0 15 -2 15
-3z m-10 -153 c0 -6 -4 -12 -8 -15 -5 -3 -9 1 -9 9 0 8 4 15 9 15 4 0 8 -4 8
-9z m8 -56 c-3 -3 -9 2 -12 12 -6 14 -5 15 5 6 7 -7 10 -15 7 -18z m-3 -43
c-3 -3 -11 0 -18 7 -9 10 -8 11 6 5 10 -3 15 -9 12 -12z m2591 -59 c-2 -10 -8
-19 -14 -19 -27 -3 -25 -6 8 -18 19 -6 34 -18 32 -25 -1 -7 2 -10 8 -6 5 3 10
2 10 -3 0 -6 8 -13 17 -16 15 -6 15 -4 -2 14 -10 11 -13 20 -7 20 6 0 10 6 8
13 -1 6 -1 9 1 4 3 -4 9 -5 14 -1 5 3 9 1 9 -4 0 -6 7 -13 16 -16 12 -5 15 -2
10 11 -6 17 -5 17 7 1 8 -10 16 -16 19 -13 2 3 5 -3 5 -12 0 -10 -4 -21 -10
-24 -5 -4 -5 -9 2 -13 6 -4 11 -2 11 5 0 9 3 9 14 0 8 -7 13 -21 11 -33 -3
-16 -1 -17 9 -9 11 9 18 6 33 -12 10 -13 23 -22 30 -20 16 6 27 -17 14 -30
-14 -14 -14 -27 0 -27 5 0 7 6 4 13 -4 6 0 4 9 -7 12 -14 13 -24 5 -39 -6 -11
-7 -22 -2 -26 11 -7 10 -22 -1 -40 -6 -10 -5 -12 2 -7 7 4 12 2 12 -3 0 -6 5
-11 11 -11 5 0 8 4 5 8 -7 12 12 38 21 29 4 -5 1 -12 -7 -17 -8 -6 -11 -10 -6
-10 6 0 0 -9 -12 -20 -12 -11 -19 -27 -16 -35 8 -19 21 -19 21 0 0 8 -5 11
-10 8 -6 -3 -7 -1 -3 6 4 6 11 9 16 6 5 -3 12 4 15 16 4 11 9 18 12 16 2 -3
-1 -16 -8 -29 -7 -12 -13 -26 -14 -29 0 -3 -7 -13 -17 -22 -18 -18 -13 -61 6
-50 7 4 6 1 -1 -9 -7 -8 -9 -18 -5 -22 4 -4 0 -6 -8 -4 -9 2 -14 -4 -13 -15 0
-12 -4 -16 -12 -13 -15 5 -39 -17 -28 -27 3 -4 -2 -9 -11 -13 -9 -3 -16 -13
-16 -22 0 -13 3 -12 15 4 12 16 14 17 15 2 0 -20 -19 -28 -41 -17 -12 6 -16 4
-15 -6 0 -7 -3 -13 -9 -12 -5 1 -9 6 -7 10 1 5 -2 6 -7 3 -5 -3 -7 -19 -6 -36
2 -18 -4 -35 -14 -42 -14 -12 -14 -11 -2 5 7 9 10 17 5 18 -5 0 -19 2 -31 3
-14 2 -19 -2 -16 -11 4 -11 8 -11 22 -1 13 10 13 9 -2 -8 -9 -11 -14 -24 -10
-29 5 -4 -2 -2 -14 4 -26 13 -31 26 -7 17 14 -6 15 -4 4 9 -12 15 -14 15 -22
1 -5 -9 -6 -21 -3 -26 3 -6 1 -10 -6 -10 -6 0 -9 8 -6 20 3 11 1 23 -4 26 -5
3 -8 2 -7 -3 4 -17 -14 -54 -25 -50 -7 2 -20 0 -29 -5 -11 -5 -18 -5 -18 1 0
11 29 23 40 16 5 -3 12 0 16 6 4 7 3 9 -4 5 -6 -3 -13 -2 -17 4 -3 5 -14 10
-23 10 -14 0 -15 -2 -2 -10 10 -6 6 -9 -18 -8 -18 1 -29 5 -25 11 3 6 1 7 -6
3 -6 -4 -14 0 -17 8 -3 9 -11 16 -17 16 -5 0 -2 -9 8 -20 17 -18 17 -20 1 -20
-13 0 -15 -4 -6 -19 7 -15 7 -19 -5 -17 -8 1 -18 6 -22 11 -4 4 -3 5 3 2 7 -4
12 3 12 18 0 17 -4 23 -12 17 -16 -13 -46 -11 -46 3 0 7 -7 19 -17 26 -15 13
-15 12 -5 -8 9 -16 9 -24 0 -29 -6 -4 -9 -3 -6 2 3 5 0 15 -8 21 -7 7 -15 9
-19 4 -10 -17 -40 -4 -41 17 -1 12 2 19 7 16 4 -2 5 -12 2 -22 -5 -14 -3 -15
7 -5 10 9 10 15 2 26 -7 8 -9 17 -5 21 4 4 0 4 -10 0 -9 -3 -23 -1 -31 5 -7 6
-16 8 -19 5 -3 -4 -4 5 -1 20 2 14 1 26 -3 25 -20 -3 -34 2 -28 11 4 6 11 8
16 5 5 -3 6 1 2 10 -5 14 -8 14 -15 3 -7 -9 -8 -7 -5 10 3 12 1 22 -3 22 -5 0
-5 13 0 30 6 21 5 29 -3 27 -7 -1 -11 8 -11 20 1 19 -1 21 -19 12 -12 -7 -17
-7 -13 -1 3 6 0 12 -6 15 -8 2 -9 8 -4 13 5 5 11 4 13 -4 4 -9 8 -10 18 -2 9
8 15 8 20 0 3 -5 12 -10 18 -10 7 0 4 5 -6 11 -9 6 -15 14 -12 19 3 5 1 12 -5
15 -8 5 -8 11 -1 19 8 9 6 18 -5 32 -8 10 -12 13 -8 5 4 -9 3 -12 -3 -8 -6 4
-24 -3 -39 -14 -20 -14 -18 -11 6 10 19 17 38 31 42 31 4 0 8 7 8 16 0 9 -5
12 -12 8 -10 -6 -10 -5 0 8 6 8 14 28 16 45 1 16 8 38 15 49 10 15 11 16 7 2
-3 -10 -1 -18 4 -18 6 0 10 6 10 14 0 8 7 17 16 20 8 3 12 10 9 16 -3 6 1 7 9
4 11 -4 16 0 16 10 0 9 5 16 11 16 5 0 7 -6 3 -12 -4 -8 -3 -10 2 -5 5 5 9 14
9 20 0 17 28 15 43 -3 10 -13 11 -12 5 4 -5 14 -3 17 7 11 9 -5 11 -4 6 3 -10
16 7 15 23 0 10 -9 12 -9 7 -1 -9 17 14 28 26 12 8 -11 9 -11 5 2 -3 9 0 22 6
28 8 8 8 11 -1 11 -7 0 -12 5 -12 11 0 8 5 8 15 -1 9 -7 13 -23 11 -36 -3 -14
-1 -22 5 -19 5 4 7 11 4 16 -6 9 8 13 33 10 6 -1 12 3 12 8 0 5 -8 8 -18 6
-11 -2 -24 6 -32 18 -12 20 -12 21 3 8 15 -12 21 -9 19 9 0 3 8 6 19 6 18 0
18 -2 5 -12 -19 -13 -21 -25 -4 -21 19 3 36 21 30 31 -3 5 0 6 6 2 6 -3 13 -2
17 4 9 15 14 12 11 -7z m-180 -22 c-3 -5 1 -14 9 -21 11 -9 15 -9 15 -1 0 7 5
9 11 6 6 -5 4 -12 -8 -20 -10 -7 -21 -11 -25 -9 -5 3 -14 2 -20 -3 -21 -13
-36 -12 -42 3 -4 12 -2 12 14 4 14 -7 20 -7 20 0 0 5 7 10 16 10 13 0 14 3 5
13 -6 8 -8 17 -4 20 9 10 15 8 9 -2z m214 -1 c-10 -6 -11 -10 -2 -10 6 0 12
-5 12 -10 0 -6 -8 -5 -20 2 -14 9 -16 14 -7 20 7 4 17 8 22 8 6 0 3 -5 -5 -10z
m-2630 -10 c0 -5 -2 -10 -4 -10 -3 0 -8 5 -11 10 -3 6 -1 10 4 10 6 0 11 -4
11 -10z m2772 -38 c-7 -2 -12 -8 -12 -13 0 -6 5 -7 10 -4 6 4 10 3 9 -2 -4
-20 2 -27 12 -13 9 13 10 13 6 -1 -3 -9 3 -23 14 -32 12 -10 19 -12 19 -5 0 6
3 9 6 5 3 -3 3 -11 -1 -17 -5 -8 -14 -5 -29 9 -12 12 -26 18 -31 14 -4 -5 -5
-3 -2 3 4 7 0 17 -7 24 -20 15 -17 50 3 42 10 -4 11 -7 3 -10z m-428 -14 c-3
-4 -9 -8 -15 -8 -5 0 -9 4 -9 8 0 5 7 9 15 9 8 0 12 -4 9 -9z m531 -78 c3 -5
1 -10 -4 -10 -6 0 -11 5 -11 10 0 6 2 10 4 10 3 0 8 -4 11 -10z m-2875 -30 c0
-5 -2 -10 -4 -10 -3 0 -8 5 -11 10 -3 6 -1 10 4 10 6 0 11 -4 11 -10z m2220
-44 c0 -3 -4 -8 -10 -11 -5 -3 -10 -1 -10 4 0 6 5 11 10 11 6 0 10 -2 10 -4z
m700 -33 c0 -3 -7 -3 -15 0 -8 4 -17 2 -20 -3 -3 -4 1 -10 7 -13 10 -3 10 -8
-1 -18 -8 -8 -11 -9 -7 -2 3 6 2 15 -4 18 -16 10 8 35 26 28 8 -3 14 -7 14
-10z m-729 -26 c-10 -9 -11 -8 -5 6 3 10 9 15 12 12 3 -3 0 -11 -7 -18z m28
-53 c-10 -13 -10 -17 0 -24 9 -5 10 -10 2 -14 -16 -10 -31 2 -24 19 3 8 0 15
-7 15 -6 0 -8 5 -5 10 3 6 15 10 27 10 17 0 19 -2 7 -16z m-48 -37 c-10 -9
-11 -8 -5 6 3 10 9 15 12 12 3 -3 0 -11 -7 -18z m2944 14 c3 -5 0 -13 -6 -17
-7 -4 -9 -3 -5 4 3 5 0 13 -6 15 -9 4 -10 6 -1 6 6 1 14 -3 18 -8z m-2179 -39
c0 -10 -5 -19 -12 -19 -6 0 -9 9 -6 19 2 10 7 18 11 18 4 0 7 -8 7 -18z m-759
-27 c0 -8 -4 -12 -9 -9 -5 3 -6 10 -3 15 9 13 12 11 12 -6z m41 -7 c0 -7 2
-22 4 -32 2 -10 -4 -21 -12 -23 -13 -4 -13 -3 -1 5 12 9 12 13 2 26 -7 8 -10
20 -6 26 8 13 11 13 13 -2z m686 -9 c-3 -5 -10 -7 -15 -3 -5 3 -7 10 -3 15 3
5 10 7 15 3 5 -3 7 -10 3 -15z m-709 -28 c-9 -8 -36 -10 -30 -2 2 4 11 8 20 8
8 0 13 -3 10 -6z m-2185 -7 c0 -8 -19 -13 -24 -6 -3 5 1 9 9 9 8 0 15 -2 15
-3z m2220 -34 c0 -5 -4 -10 -10 -10 -5 0 -10 5 -10 10 0 6 5 10 10 10 6 0 10
-4 10 -10z m2885 -9 c3 -5 0 -13 -6 -17 -7 -4 -9 -3 -5 4 3 5 0 13 -6 15 -9 4
-10 6 -1 6 6 1 14 -3 18 -8z m-2256 -33 c1 6 6 12 13 12 6 0 4 -7 -5 -18 -10
-10 -14 -23 -10 -27 5 -5 1 -4 -9 3 -14 11 -16 25 -8 52 1 3 5 -4 10 -15 5
-11 9 -14 9 -7z m-624 -17 c3 -5 2 -12 -3 -15 -5 -3 -9 1 -9 9 0 17 3 19 12 6z
m22 -30 c0 -11 -5 -18 -9 -15 -4 3 -5 11 -1 19 7 21 12 19 10 -4z m543 -30 c0
-5 -7 -12 -16 -15 -8 -3 -12 -10 -9 -16 3 -5 4 -10 1 -10 -3 0 -10 9 -16 20
-9 16 -8 18 5 14 8 -4 15 -1 15 5 0 6 5 11 10 11 6 0 10 -4 10 -9z m2315 -50
c3 -5 0 -13 -6 -17 -7 -4 -9 -3 -5 4 3 5 0 13 -6 15 -9 4 -10 6 -1 6 6 1 14
-3 18 -8z m-2595 -31 c0 -5 -5 -10 -11 -10 -5 0 -7 5 -4 10 3 6 8 10 11 10 2
0 4 -4 4 -10z m27 -5 c0 -8 -4 -12 -9 -9 -5 3 -6 10 -3 15 9 13 12 11 12 -6z
m-2537 -1 c0 -8 -19 -13 -24 -6 -3 5 1 9 9 9 8 0 15 -2 15 -3z m2585 -24 c-3
-5 -12 -10 -18 -10 -7 0 -6 4 3 10 19 12 23 12 15 0z m2520 -99 c3 -5 0 -13
-6 -17 -7 -4 -9 -3 -5 4 3 5 0 13 -6 15 -9 4 -10 6 -1 6 6 1 14 -3 18 -8z
m-5115 -141 c0 -5 -2 -10 -4 -10 -3 0 -8 5 -11 10 -3 6 -1 10 4 10 6 0 11 -4
11 -10z m0 -160 c0 -5 -2 -10 -4 -10 -3 0 -8 5 -11 10 -3 6 -1 10 4 10 6 0 11
-4 11 -10z m10 -136 c0 -8 -19 -13 -24 -6 -3 5 1 9 9 9 8 0 15 -2 15 -3z
m2445 -3 c3 -5 2 -12 -3 -15 -5 -3 -9 1 -9 9 0 17 3 19 12 6z m91 -10 c-3 -4
-1 -13 5 -21 7 -12 9 -9 9 10 l1 25 15 -25 c8 -14 13 -18 11 -9 -3 8 4 21 14
27 15 10 19 10 17 0 -4 -17 79 -14 108 4 6 4 11 1 11 -6 0 -7 -7 -13 -16 -13
-32 0 -41 -3 -41 -14 0 -8 4 -8 13 -2 6 6 20 9 30 8 10 -2 21 3 24 11 4 11 10
8 22 -13 10 -15 20 -37 24 -47 6 -15 5 -17 -6 -7 -11 9 -17 7 -28 -6 -13 -17
-13 -17 5 -3 18 14 19 13 13 -2 -3 -10 -1 -20 5 -24 7 -4 8 -3 4 4 -4 7 -3 12
2 12 6 0 9 -11 8 -24 -1 -18 -4 -22 -14 -14 -7 6 -15 8 -19 4 -3 -3 -1 -6 5
-6 7 0 12 -7 12 -15 0 -8 -5 -15 -12 -15 -6 0 -8 -3 -5 -6 4 -4 13 -1 21 5 11
9 16 9 22 0 4 -8 3 -9 -5 -5 -13 9 -11 -30 3 -53 5 -8 -2 -7 -20 5 -16 10 -23
12 -17 4 8 -9 9 -18 3 -25 -7 -8 -5 -12 5 -12 8 0 11 5 8 11 -3 6 -2 8 2 3 12
-11 13 -47 2 -54 -6 -3 -7 -1 -3 5 3 6 2 13 -3 17 -6 3 -8 -6 -5 -21 3 -19 1
-24 -8 -18 -10 6 -9 3 1 -9 14 -18 26 -24 17 -8 -3 5 2 15 12 22 15 13 16 12
3 -3 -7 -10 -10 -18 -6 -18 4 0 2 -6 -4 -13 -6 -8 -8 -17 -5 -20 3 -3 2 -11
-2 -18 -11 -19 -11 -59 0 -66 5 -3 6 -1 2 5 -3 6 -3 13 1 15 5 3 9 -8 9 -23 1
-25 0 -27 -13 -15 -19 20 -29 19 -12 -1 10 -13 10 -17 -2 -25 -12 -7 -12 -9 1
-9 13 0 13 -1 0 -11 -13 -9 -13 -10 0 -6 8 2 14 10 12 16 -1 6 2 11 6 11 5 0
8 -16 8 -35 -1 -19 -5 -35 -10 -35 -4 0 -6 6 -3 13 3 8 -1 14 -8 14 -10 0 -11
-5 -4 -19 7 -12 6 -18 -1 -18 -7 0 -6 -5 2 -14 7 -8 15 -12 18 -11 3 2 6 -5 6
-15 0 -14 -3 -16 -13 -8 -8 6 -16 8 -20 4 -3 -3 -1 -6 5 -6 7 0 12 -7 12 -15
0 -8 -5 -15 -12 -15 -6 0 -8 -3 -5 -6 4 -4 13 -1 21 5 11 9 16 9 22 0 4 -8 3
-9 -5 -5 -13 9 -11 -30 3 -53 5 -8 -2 -7 -20 5 -16 10 -23 12 -17 4 8 -9 9
-18 3 -25 -7 -8 -5 -12 5 -12 8 0 11 5 8 11 -3 6 -2 8 2 3 12 -11 13 -47 2
-54 -6 -3 -7 -1 -3 5 3 6 2 13 -3 17 -6 3 -8 -6 -5 -21 3 -19 1 -24 -8 -18
-10 6 -9 3 1 -9 14 -18 26 -24 17 -8 -3 5 2 15 12 22 15 13 16 12 3 -3 -7 -10
-10 -18 -6 -18 4 0 2 -6 -4 -13 -6 -8 -8 -17 -5 -20 3 -3 2 -11 -2 -18 -11
-19 -11 -59 0 -66 5 -3 6 -1 2 5 -3 6 -3 13 1 15 5 3 9 -8 9 -23 1 -25 0 -27
-13 -15 -19 20 -29 19 -12 -1 10 -13 10 -17 -2 -25 -12 -7 -12 -9 1 -9 13 0
13 -1 0 -11 -13 -9 -13 -10 0 -6 8 2 14 10 13 16 -2 6 1 11 5 11 5 0 8 -16 8
-35 -1 -19 -5 -35 -10 -35 -4 0 -6 6 -3 13 3 8 -1 14 -8 14 -10 0 -11 -5 -4
-19 7 -12 6 -18 -1 -18 -7 0 -6 -5 2 -14 7 -8 15 -12 18 -11 3 2 6 -5 6 -15 0
-14 -3 -16 -13 -8 -8 6 -16 8 -20 4 -3 -3 -1 -6 5 -6 7 0 12 -7 12 -15 0 -8
-5 -15 -12 -15 -6 0 -8 -3 -5 -6 4 -4 13 -1 21 5 11 9 16 9 22 0 4 -8 3 -9 -5
-5 -13 9 -11 -30 3 -53 5 -8 -2 -7 -20 5 -16 10 -23 12 -17 4 8 -9 9 -18 3
-25 -7 -8 -5 -12 5 -12 8 0 11 5 8 11 -3 6 -2 8 2 3 12 -11 13 -47 2 -54 -6
-3 -7 -1 -3 5 3 6 2 13 -3 17 -6 3 -8 -6 -5 -21 3 -19 1 -24 -8 -18 -10 6 -9
3 1 -9 14 -18 26 -24 17 -8 -3 5 2 15 12 22 15 13 16 12 3 -3 -7 -10 -10 -18
-6 -18 4 0 2 -6 -4 -13 -6 -8 -8 -17 -5 -20 3 -3 2 -11 -2 -18 -11 -19 -11
-59 0 -66 5 -3 6 -1 2 5 -3 6 -3 13 1 15 5 3 9 -8 9 -23 1 -25 0 -27 -13 -15
-19 20 -29 19 -12 -1 10 -13 10 -17 -2 -25 -12 -7 -12 -9 1 -9 13 0 13 -1 0
-11 -13 -9 -13 -10 0 -6 8 2 14 10 13 16 -2 6 1 11 5 11 5 0 8 -16 8 -35 -1
-19 -5 -35 -10 -35 -4 0 -6 6 -3 13 3 8 -1 14 -8 14 -10 0 -11 -5 -4 -19 7
-13 6 -18 -3 -18 -7 -1 -2 -8 12 -16 24 -15 24 -15 2 -10 -19 4 -21 2 -11 -10
6 -7 15 -12 19 -9 5 3 12 0 16 -6 4 -8 3 -9 -4 -5 -11 6 -17 -12 -13 -37 1 -4
-7 -3 -18 2 -16 9 -18 8 -14 -8 3 -13 12 -18 25 -16 12 3 18 1 14 -2 -4 -4
-20 -8 -37 -9 -27 -2 -29 -1 -17 13 12 15 11 15 -9 3 -12 -8 -19 -18 -16 -24
4 -5 1 -6 -8 0 -8 5 -17 9 -21 9 -3 0 -10 4 -15 9 -5 6 -2 6 7 1 13 -8 13 -7
1 8 -17 22 -21 21 -16 -3 2 -11 -1 -23 -7 -26 -7 -4 -8 -2 -4 4 4 7 2 12 -4
12 -6 0 -8 5 -4 11 4 7 -1 7 -16 -1 -20 -11 -22 -10 -17 4 4 11 3 15 -4 11 -5
-4 -8 -12 -6 -18 4 -12 -21 -36 -37 -37 -6 0 -1 6 10 14 10 8 15 18 11 22 -11
12 -36 13 -43 3 -3 -5 -10 -9 -16 -9 -6 0 -5 7 3 17 9 11 1 8 -20 -7 -30 -21
-34 -21 -28 -6 6 15 5 17 -6 8 -8 -7 -17 -9 -20 -5 -4 3 -12 2 -19 -4 -7 -5
-23 -8 -35 -7 -13 0 -23 -4 -23 -10 0 -6 -5 -3 -11 7 -5 9 -16 17 -24 17 -9 0
-12 8 -10 20 2 11 1 19 -3 16 -4 -2 -13 2 -20 10 -11 12 -9 14 10 14 18 0 20
2 8 9 -8 6 -17 8 -21 5 -4 -2 -10 0 -14 5 -3 6 3 8 14 6 15 -3 18 1 14 12 -3
8 0 19 8 25 10 7 8 7 -9 3 -12 -4 -22 -3 -21 2 1 4 -1 16 -5 25 -4 10 -6 23
-3 30 3 7 6 3 6 -9 1 -26 19 -39 33 -25 6 6 6 12 -3 17 -8 6 -10 4 -4 -5 5 -8
4 -11 -3 -7 -5 4 -9 19 -7 35 2 15 -2 36 -8 47 -9 18 -8 18 6 7 13 -11 15 -10
10 8 -4 13 0 26 8 32 10 7 8 7 -9 3 -12 -4 -22 -3 -21 2 1 4 -1 16 -5 25 -4
10 -6 23 -3 30 3 7 6 3 6 -9 1 -26 19 -39 33 -25 6 6 6 12 -3 17 -8 6 -10 4
-4 -6 5 -8 4 -11 -1 -6 -12 12 -18 86 -12 172 2 28 -1 39 -10 37 -10 -2 -10 2
0 17 6 10 19 17 27 14 9 -2 5 3 -9 11 l-25 15 24 1 c27 0 23 10 -6 15 -10 2
-19 4 -21 4 -2 1 0 6 3 11 5 8 11 8 20 0 10 -8 15 -8 21 1 4 7 3 9 -3 6 -14
-9 -13 66 1 75 7 5 6 8 -3 8 -10 0 -11 3 -2 14 9 11 9 16 0 21 -8 6 -7 10 2
16 10 6 11 9 2 9 -7 0 -13 5 -13 11 0 5 6 7 13 3 9 -6 9 -4 -1 8 -10 13 -10
17 0 20 8 3 6 7 -6 11 -10 4 -15 3 -11 -3 3 -6 2 -10 -3 -10 -8 0 -8 42 0 165
2 28 -1 39 -10 37 -10 -2 -10 2 0 17 6 10 19 17 27 14 9 -2 5 3 -9 11 l-25 15
24 1 c27 0 23 10 -6 15 -10 2 -19 4 -21 4 -2 1 0 6 3 11 5 8 11 8 20 0 10 -8
15 -8 21 1 4 7 3 9 -3 6 -14 -9 -13 66 1 75 7 5 6 8 -3 8 -10 0 -11 3 -2 14 9
11 9 16 0 21 -8 6 -7 10 2 16 10 6 11 9 2 9 -7 0 -13 5 -13 11 0 5 6 7 13 3 9
-6 9 -4 -1 8 -10 13 -10 17 0 20 8 3 6 7 -6 11 -10 4 -15 3 -11 -3 3 -6 2 -10
-3 -10 -8 0 -8 42 0 165 2 28 -1 39 -10 37 -10 -2 -10 2 0 17 6 11 19 17 27
14 14 -4 14 -4 1 6 -12 9 -13 13 -2 20 11 7 10 9 -3 14 -9 4 -13 3 -10 -2 3
-5 2 -12 -3 -15 -4 -2 -8 8 -7 24 0 22 3 26 13 18 7 -6 15 -8 19 -4 3 3 1 6
-6 6 -8 0 -11 6 -7 16 4 10 2 13 -6 8 -7 -4 -8 -3 -4 5 4 6 18 9 32 7 14 -3
22 -1 19 5 -4 5 -12 6 -18 3 -7 -4 -9 -3 -4 1 4 5 16 9 27 10 16 1 19 -3 14
-18 -5 -17 -4 -18 9 -6 8 8 13 17 10 22 -2 4 1 6 9 5 7 -2 18 -12 25 -23 7
-11 12 -15 13 -9 0 6 18 11 40 11 24 0 37 -4 33 -10 -3 -6 -1 -7 6 -3 8 6 9
12 2 20 -6 7 -8 16 -5 19 9 8 26 -2 20 -12z m-36 -1 c0 -5 -2 -10 -4 -10 -3 0
-8 5 -11 10 -3 6 -1 10 4 10 6 0 11 -4 11 -10z m-2500 -306 c0 -8 -19 -13 -24
-6 -3 5 1 9 9 9 8 0 15 -2 15 -3z m5105 -43 c3 -5 0 -13 -6 -17 -7 -4 -9 -3
-5 4 3 5 0 13 -6 15 -9 4 -10 6 -1 6 6 1 14 -3 18 -8z m-2800 -51 c-3 -5 -1
-11 5 -15 6 -4 8 -11 5 -16 -11 -17 -20 -9 -20 20 -1 16 3 27 7 25 5 -3 6 -9
3 -14z m490 2 c-3 -3 -11 0 -18 7 -9 10 -8 11 6 5 10 -3 15 -9 12 -12z m-2805
-61 c0 -6 -4 -12 -8 -15 -5 -3 -9 1 -9 9 0 8 4 15 9 15 4 0 8 -4 8 -9z m2320
3 c0 -8 -19 -13 -24 -6 -3 5 1 9 9 9 8 0 15 -2 15 -3z m-2312 -59 c-3 -3 -9 2
-12 12 -6 14 -5 15 5 6 7 -7 10 -15 7 -18z m2307 5 c3 -5 1 -10 -4 -10 -6 0
-11 5 -11 10 0 6 2 10 4 10 3 0 8 -4 11 -10z m2800 1 c3 -5 0 -13 -6 -17 -7
-4 -9 -3 -5 4 3 5 0 13 -6 15 -9 4 -10 6 -1 6 6 1 14 -3 18 -8z m-5110 -49
c-3 -3 -11 0 -18 7 -9 10 -8 11 6 5 10 -3 15 -9 12 -12z m5110 -111 c3 -5 0
-13 -6 -17 -7 -4 -9 -3 -5 4 3 5 0 13 -6 15 -9 4 -10 6 -1 6 6 1 14 -3 18 -8z
m-5105 -117 c0 -8 -19 -13 -24 -6 -3 5 1 9 9 9 8 0 15 -2 15 -3z m5105 -43 c3
-5 0 -13 -6 -17 -7 -4 -9 -3 -5 4 3 5 0 13 -6 15 -9 4 -10 6 -1 6 6 1 14 -3
18 -8z m-2800 -51 c-3 -5 -1 -11 5 -15 6 -4 8 -11 5 -16 -11 -17 -20 -9 -20
20 -1 16 3 27 7 25 5 -3 6 -9 3 -14z m490 2 c-3 -3 -11 0 -18 7 -9 10 -8 11 6
5 10 -3 15 -9 12 -12z m-485 -58 c0 -8 -19 -13 -24 -6 -3 5 1 9 9 9 8 0 15 -2
15 -3z m-5 -54 c3 -5 1 -10 -4 -10 -6 0 -11 5 -11 10 0 6 2 10 4 10 3 0 8 -4
11 -10z m-2305 -36 c0 -8 -19 -13 -24 -6 -3 5 1 9 9 9 8 0 15 -2 15 -3z m2795
-332 c-3 -3 -11 0 -18 7 -9 10 -8 11 6 5 10 -3 15 -9 12 -12z m-2795 -68 c0
-8 -19 -13 -24 -6 -3 5 1 9 9 9 8 0 15 -2 15 -3z m2309 -178 c9 -11 9 -16 0
-22 -8 -4 -9 -3 -5 4 4 7 2 12 -3 12 -6 0 -11 5 -11 10 0 14 5 13 19 -4z
m2796 -25 c3 -5 0 -13 -6 -17 -7 -4 -9 -3 -5 4 3 5 0 13 -6 15 -9 4 -10 6 -1
6 6 1 14 -3 18 -8z m-2555 -10 c0 -5 -7 -12 -16 -15 -14 -5 -15 -4 -4 9 14 17
20 19 20 6z m-89 -18 c12 -16 12 -17 -2 -6 -9 7 -20 9 -24 5 -5 -4 -5 -1 -1 6
9 16 11 15 27 -5z m49 2 c0 -8 -2 -15 -4 -15 -2 0 -6 7 -10 15 -3 8 -1 15 4
15 6 0 10 -7 10 -15z m120 6 c0 -6 -4 -12 -8 -15 -5 -3 -9 1 -9 9 0 8 4 15 9
15 4 0 8 -4 8 -9z m-2630 -17 c0 -8 -19 -13 -24 -6 -3 5 1 9 9 9 8 0 15 -2 15
-3z m5105 -123 c3 -5 0 -13 -6 -17 -7 -4 -9 -3 -5 4 3 5 0 13 -6 15 -9 4 -10
6 -1 6 6 1 14 -3 18 -8z m-5105 -117 c0 -8 -19 -13 -24 -6 -3 5 1 9 9 9 8 0
15 -2 15 -3z m5104 -252 c3 -5 -1 -9 -9 -9 -8 0 -12 4 -9 9 3 4 7 8 9 8 2 0 6
-4 9 -8z m4 -60 c2 -7 -1 -12 -8 -12 -6 0 -9 4 -6 9 4 5 1 12 -4 14 -6 3 -5 4
2 3 6 -1 14 -8 16 -14z m-5121 -52 c-1 -21 -10 -18 -13 5 -1 8 2 15 6 15 5 0
8 -9 7 -20z m5117 -28 c3 -5 -1 -9 -9 -9 -8 0 -12 4 -9 9 3 4 7 8 9 8 2 0 6
-4 9 -8z m0 -28 c14 -5 13 -9 -4 -31 -10 -13 -16 -32 -13 -41 4 -14 3 -15 -6
-2 -7 11 -6 21 5 39 13 19 14 25 3 32 -16 10 -8 12 15 3z m-39 -196 c5 4 5 1
1 -6 -6 -9 -11 -10 -20 -3 -7 6 -17 7 -21 3 -5 -4 -5 -1 -1 6 6 9 11 10 20 3
7 -6 17 -7 21 -3z m-80 -98 c-3 -5 -14 -10 -23 -9 -14 0 -13 2 3 9 27 11 27
11 20 0z m-55 -86 c0 -8 -19 -13 -24 -6 -3 5 1 9 9 9 8 0 15 -2 15 -3z m-4685
-14 c3 -5 1 -10 -4 -10 -6 0 -11 5 -11 10 0 6 2 10 4 10 3 0 8 -4 11 -10z
m4625 1 c0 -6 -12 -23 -26 -38 -15 -15 -21 -20 -14 -11 6 9 9 22 5 28 -4 6 -1
9 7 8 7 -2 12 3 11 10 -2 6 2 12 7 12 6 0 10 -4 10 -9z m-80 -63 c0 -6 -6 -5
-15 2 -8 7 -15 14 -15 16 0 2 7 1 15 -2 8 -4 15 -11 15 -16z m-4189 -12 c5 3
9 0 9 -6 0 -15 -23 -7 -26 8 -1 7 0 8 3 2 2 -5 9 -8 14 -4z m207 -11 c-3 -3
-9 2 -12 12 -6 14 -5 15 5 6 7 -7 10 -15 7 -18z m254 11 c7 4 8 2 4 -5 -9 -13
-26 -5 -25 12 0 9 2 8 6 -1 2 -6 10 -9 15 -6z m160 0 c7 4 8 2 4 -5 -9 -13
-26 -5 -25 12 0 9 2 8 6 -1 2 -6 10 -9 15 -6z m800 0 c7 4 8 2 4 -5 -9 -13
-26 -5 -25 12 0 9 2 8 6 -1 2 -6 10 -9 15 -6z m160 0 c7 4 8 2 4 -5 -9 -13
-26 -5 -25 12 0 9 2 8 6 -1 2 -6 10 -9 15 -6z m226 -11 c-3 -3 -9 2 -12 12 -6
14 -5 15 5 6 7 -7 10 -15 7 -18z m113 11 c5 3 9 0 9 -6 0 -15 -23 -7 -26 8 -1
7 0 8 3 2 2 -5 9 -8 14 -4z m207 -11 c-3 -3 -9 2 -12 12 -6 14 -5 15 5 6 7 -7
10 -15 7 -18z m1902 5 c0 -5 -2 -10 -4 -10 -3 0 -8 5 -11 10 -3 6 -1 10 4 10
6 0 11 -4 11 -10z"/>
<path d="M3500 5000 c0 -6 7 -10 15 -10 8 0 15 2 15 4 0 2 -7 6 -15 10 -8 3
-15 1 -15 -4z"/>
<path d="M3535 4980 c-3 -5 -2 -10 4 -10 5 0 13 5 16 10 3 6 2 10 -4 10 -5 0
-13 -4 -16 -10z"/>
<path d="M3614 4982 c4 -7 13 -12 21 -12 7 0 16 -6 18 -12 4 -10 6 -10 6 0 1
8 6 10 14 6 6 -4 8 -3 4 1 -4 5 -13 10 -20 11 -7 1 -21 6 -31 10 -14 5 -17 4
-12 -4z"/>
<path d="M3262 4898 c-7 -7 -12 -17 -12 -22 0 -6 5 -3 11 7 6 9 14 15 20 12 5
-4 9 -1 9 4 0 14 -13 14 -28 -1z"/>
<path d="M3720 4880 c-12 -7 -10 -9 7 -7 12 0 19 5 17 9 -6 10 -6 10 -24 -2z"/>
<path d="M3193 4830 c1 -11 5 -20 9 -20 3 0 6 9 5 20 -1 11 -5 20 -9 20 -3 0
-6 -9 -5 -20z"/>
<path d="M3190 4779 c0 -5 5 -7 10 -4 6 3 10 8 10 11 0 2 -4 4 -10 4 -5 0 -10
-5 -10 -11z"/>
<path d="M3190 4739 c0 -5 5 -7 10 -4 6 3 10 8 10 11 0 2 -4 4 -10 4 -5 0 -10
-5 -10 -11z"/>
<path d="M3795 4729 c-4 -6 -5 -12 -2 -15 2 -3 7 2 10 11 7 17 1 20 -8 4z"/>
<path d="M3801 4616 c-9 -11 -9 -16 1 -22 7 -4 10 -4 6 1 -4 4 -3 14 3 22 6 7
9 13 6 13 -2 0 -10 -6 -16 -14z"/>
<path d="M3807 4561 c-3 -13 -1 -18 9 -14 7 2 10 11 7 19 -7 19 -10 18 -16 -5z"/>
<path d="M3242 4433 c6 -7 16 -13 22 -13 6 0 5 4 -3 9 -11 7 -11 9 0 14 8 3 4
4 -8 4 -17 -1 -19 -4 -11 -14z"/>
<path d="M3306 4395 c4 -8 11 -15 16 -15 6 0 5 6 -2 15 -7 8 -14 15 -16 15 -2
0 -1 -7 2 -15z"/>
<path d="M3396 4366 c6 -15 4 -17 -6 -11 -9 6 -11 4 -5 -4 5 -9 10 -10 18 -2
8 8 7 14 -2 24 -10 10 -11 8 -5 -7z"/>
<path d="M3555 4360 c-3 -5 -1 -10 4 -10 6 0 11 5 11 10 0 6 -2 10 -4 10 -3 0
-8 -4 -11 -10z"/>
<path d="M3550 3731 c0 -6 4 -13 10 -16 6 -3 7 1 4 9 -7 18 -14 21 -14 7z"/>
<path d="M3360 3720 c-9 -6 -10 -10 -3 -10 6 0 15 5 18 10 8 12 4 12 -15 0z"/>
<path d="M3700 3723 c0 -6 8 -17 18 -24 16 -13 16 -13 2 6 -8 11 -16 22 -17
24 -2 2 -3 0 -3 -6z"/>
<path d="M3260 3606 c0 -2 7 -7 16 -10 8 -3 12 -2 9 4 -6 10 -25 14 -25 6z"/>
<path d="M3269 3523 c0 -5 -2 -18 -5 -30 -2 -13 0 -23 5 -23 5 0 8 8 6 18 -1
9 2 23 8 30 6 8 6 12 -2 12 -6 0 -11 -3 -12 -7z"/>
<path d="M3266 3448 c3 -5 10 -6 15 -3 13 9 11 12 -6 12 -8 0 -12 -4 -9 -9z"/>
<path d="M3268 3423 c7 -3 16 -2 19 1 4 3 -2 6 -13 5 -11 0 -14 -3 -6 -6z"/>
<path d="M3713 3391 c0 -11 5 -18 9 -15 4 3 5 11 1 19 -7 21 -12 19 -10 -4z"/>
<path d="M3260 3126 c0 -2 7 -7 16 -10 8 -3 12 -2 9 4 -6 10 -25 14 -25 6z"/>
<path d="M3269 3043 c0 -5 -2 -18 -5 -30 -2 -13 0 -23 5 -23 5 0 8 8 6 18 -1
9 2 23 8 30 6 8 6 12 -2 12 -6 0 -11 -3 -12 -7z"/>
<path d="M3266 2968 c3 -5 10 -6 15 -3 13 9 11 12 -6 12 -8 0 -12 -4 -9 -9z"/>
<path d="M3268 2943 c7 -3 16 -2 19 1 4 3 -2 6 -13 5 -11 0 -14 -3 -6 -6z"/>
<path d="M3713 2911 c0 -11 5 -18 9 -15 4 3 5 11 1 19 -7 21 -12 19 -10 -4z"/>
<path d="M3260 2646 c0 -2 7 -7 16 -10 8 -3 12 -2 9 4 -6 10 -25 14 -25 6z"/>
<path d="M3269 2563 c0 -5 -2 -18 -5 -30 -2 -12 0 -24 4 -27 5 -3 8 5 7 17 -1
12 2 28 8 35 6 8 6 12 -2 12 -6 0 -11 -3 -12 -7z"/>
<path d="M3713 2431 c0 -11 5 -18 9 -15 4 3 5 11 1 19 -7 21 -12 19 -10 -4z"/>
<path d="M3327 2116 c-4 -10 -1 -13 8 -9 8 3 12 9 9 14 -7 12 -11 11 -17 -5z"/>
<path d="M1268 6084 c-8 -7 2 -44 11 -44 4 0 8 7 8 15 0 8 -5 15 -11 15 -6 0
-4 5 4 10 8 5 10 10 4 10 -6 0 -13 -3 -16 -6z"/>
<path d="M1725 6081 c-3 -5 -2 -12 3 -15 5 -3 9 1 9 9 0 17 -3 19 -12 6z"/>
<path d="M1885 6081 c-3 -5 -2 -12 3 -15 5 -3 9 1 9 9 0 17 -3 19 -12 6z"/>
<path d="M1914 6078 c-7 -11 4 -28 18 -28 6 0 8 3 5 7 -4 3 -2 11 3 18 7 8 5
12 -6 12 -8 0 -17 -4 -20 -9z"/>
<path d="M2230 6085 c0 -7 30 -13 34 -7 3 4 -4 9 -15 9 -10 1 -19 0 -19 -2z"/>
<path d="M2710 6085 c0 -7 30 -13 34 -7 3 4 -4 9 -15 9 -10 1 -19 0 -19 -2z"/>
<path d="M2950 6085 c0 -7 30 -13 34 -7 3 4 -4 9 -15 9 -10 1 -19 0 -19 -2z"/>
<path d="M3350 6085 c0 -7 30 -13 34 -7 3 4 -4 9 -15 9 -10 1 -19 0 -19 -2z"/>
<path d="M3590 6085 c0 -7 30 -13 34 -7 3 4 -4 9 -15 9 -10 1 -19 0 -19 -2z"/>
<path d="M4150 6085 c0 -7 30 -13 34 -7 3 4 -4 9 -15 9 -10 1 -19 0 -19 -2z"/>
<path d="M4605 6081 c-3 -5 -2 -12 3 -15 5 -3 9 1 9 9 0 17 -3 19 -12 6z"/>
<path d="M4765 6081 c-3 -5 -2 -12 3 -15 5 -3 9 1 9 9 0 17 -3 19 -12 6z"/>
<path d="M4950 6085 c0 -7 30 -13 34 -7 3 4 -4 9 -15 9 -10 1 -19 0 -19 -2z"/>
<path d="M5190 6085 c0 -7 30 -13 34 -7 3 4 -4 9 -15 9 -10 1 -19 0 -19 -2z"/>
<path d="M5680 6080 c-8 -5 -11 -13 -6 -17 5 -4 11 -2 13 5 3 6 10 9 15 6 7
-4 8 -2 4 4 -9 14 -7 14 -26 2z"/>
<path d="M1195 6069 c-4 -6 -5 -12 -2 -15 2 -3 7 2 10 11 7 17 1 20 -8 4z"/>
<path d="M1750 6072 c0 -5 7 -9 15 -9 8 0 12 4 9 9 -3 4 -9 8 -15 8 -5 0 -9
-4 -9 -8z"/>
<path d="M4630 6072 c0 -5 7 -9 15 -9 8 0 12 4 9 9 -3 4 -9 8 -15 8 -5 0 -9
-4 -9 -8z"/>
<path d="M5786 6021 c21 -16 41 -28 43 -25 2 2 13 -3 23 -13 11 -9 18 -11 18
-5 0 7 -5 12 -11 12 -5 0 -8 4 -4 9 3 6 -3 8 -15 6 -11 -2 -22 0 -25 6 -4 5
-1 9 5 9 7 0 5 6 -4 15 -8 8 -18 15 -22 15 -3 0 -1 -7 6 -15 9 -11 9 -15 1
-15 -6 0 -14 7 -17 15 -4 8 -13 15 -22 15 -9 0 1 -13 24 -29z"/>
<path d="M1140 6011 c0 -6 4 -13 10 -16 6 -3 7 1 4 9 -7 18 -14 21 -14 7z"/>
<path d="M1110 5999 c0 -5 5 -7 10 -4 6 3 10 8 10 11 0 2 -4 4 -10 4 -5 0 -10
-5 -10 -11z"/>
<path d="M5898 5961 c11 -19 21 -27 32 -23 13 6 13 7 -2 10 -9 2 -20 12 -23
23 -4 10 -10 19 -15 19 -5 0 -2 -13 8 -29z"/>
<path d="M5956 5942 c-2 -4 2 -16 10 -27 8 -10 14 -14 14 -8 0 7 -5 15 -10 18
-6 4 -8 11 -5 16 4 5 4 9 1 9 -3 0 -7 -3 -10 -8z"/>
<path d="M992 5853 c5 -7 14 -10 19 -7 16 10 9 23 -10 21 -15 -1 -17 -4 -9
-14z"/>
<path d="M985 5830 c3 -6 1 -10 -6 -10 -7 0 -10 -3 -6 -6 3 -3 13 -2 22 4 16
8 16 9 1 15 -10 4 -15 3 -11 -3z"/>
<path d="M6003 5808 c0 -13 1 -17 4 -10 3 6 9 10 14 7 5 -4 6 1 3 9 -9 23 -20
19 -21 -6z"/>
<path d="M954 5789 c-8 -14 14 -19 25 -6 8 10 7 14 -5 14 -8 0 -17 -4 -20 -8z"/>
<path d="M915 5601 c2 -19 18 -17 21 2 1 8 -4 14 -11 14 -7 0 -12 -7 -10 -16z"/>
<path d="M6074 5562 c3 -5 0 -13 -6 -15 -9 -4 -10 -6 -1 -6 17 -1 25 16 12 25
-7 4 -9 3 -5 -4z"/>
<path d="M913 5391 c0 -11 5 -18 9 -15 4 3 5 11 1 19 -7 21 -12 19 -10 -4z"/>
<path d="M6067 5279 c7 -7 15 -10 18 -7 3 3 -2 9 -12 12 -14 6 -15 5 -6 -5z"/>
<path d="M6067 5229 c7 -7 15 -10 18 -7 3 3 -2 9 -12 12 -14 6 -15 5 -6 -5z"/>
<path d="M6067 5039 c7 -7 15 -10 18 -7 3 3 -2 9 -12 12 -14 6 -15 5 -6 -5z"/>
<path d="M6067 4989 c7 -7 15 -10 18 -7 3 3 -2 9 -12 12 -14 6 -15 5 -6 -5z"/>
<path d="M916 4952 c-3 -5 1 -9 9 -9 8 0 12 4 9 9 -3 4 -7 8 -9 8 -2 0 -6 -4
-9 -8z"/>
<path d="M920 4921 c0 -6 4 -12 8 -15 5 -3 9 1 9 9 0 8 -4 15 -9 15 -4 0 -8
-4 -8 -9z"/>
<path d="M6060 4806 c0 -2 7 -7 16 -10 8 -3 12 -2 9 4 -6 10 -25 14 -25 6z"/>
<path d="M916 4792 c-3 -5 1 -9 9 -9 8 0 12 4 9 9 -3 4 -7 8 -9 8 -2 0 -6 -4
-9 -8z"/>
<path d="M6070 4750 c-9 -6 -10 -10 -3 -10 6 0 15 5 18 10 8 12 4 12 -15 0z"/>
<path d="M913 4591 c0 -11 5 -18 9 -15 4 3 5 11 1 19 -7 21 -12 19 -10 -4z"/>
<path d="M6074 4602 c3 -5 0 -13 -6 -15 -9 -4 -10 -6 -1 -6 17 -1 25 16 12 25
-7 4 -9 3 -5 -4z"/>
<path d="M6074 4442 c3 -5 0 -13 -6 -15 -9 -4 -10 -6 -1 -6 17 -1 25 16 12 25
-7 4 -9 3 -5 -4z"/>
<path d="M913 4351 c0 -11 5 -18 9 -15 4 3 5 11 1 19 -7 21 -12 19 -10 -4z"/>
<path d="M6074 4282 c3 -5 0 -13 -6 -15 -9 -4 -10 -6 -1 -6 17 -1 25 16 12 25
-7 4 -9 3 -5 -4z"/>
<path d="M6067 3999 c7 -7 15 -10 18 -7 3 3 -2 9 -12 12 -14 6 -15 5 -6 -5z"/>
<path d="M916 3992 c-3 -5 1 -9 9 -9 8 0 12 4 9 9 -3 4 -7 8 -9 8 -2 0 -6 -4
-9 -8z"/>
<path d="M920 3961 c0 -6 4 -12 8 -15 5 -3 9 1 9 9 0 8 -4 15 -9 15 -4 0 -8
-4 -8 -9z"/>
<path d="M6067 3949 c7 -7 15 -10 18 -7 3 3 -2 9 -12 12 -14 6 -15 5 -6 -5z"/>
<path d="M916 3832 c-3 -5 1 -9 9 -9 8 0 12 4 9 9 -3 4 -7 8 -9 8 -2 0 -6 -4
-9 -8z"/>
<path d="M919 3808 c-7 -33 -6 -38 5 -29 7 6 16 7 21 3 4 -4 6 -1 3 7 -4 13
-27 28 -29 19z"/>
<path d="M6067 3759 c7 -7 15 -10 18 -7 3 3 -2 9 -12 12 -14 6 -15 5 -6 -5z"/>
<path d="M6067 3709 c7 -7 15 -10 18 -7 3 3 -2 9 -12 12 -14 6 -15 5 -6 -5z"/>
<path d="M6060 3526 c0 -2 7 -7 16 -10 8 -3 12 -2 9 4 -6 10 -25 14 -25 6z"/>
<path d="M913 3471 c0 -11 5 -18 9 -15 4 3 5 11 1 19 -7 21 -12 19 -10 -4z"/>
<path d="M6070 3470 c-9 -6 -10 -10 -3 -10 6 0 15 5 18 10 8 12 4 12 -15 0z"/>
<path d="M6074 3322 c3 -5 0 -13 -6 -15 -9 -4 -10 -6 -1 -6 17 -1 25 16 12 25
-7 4 -9 3 -5 -4z"/>
<path d="M6074 3162 c3 -5 0 -13 -6 -15 -9 -4 -10 -6 -1 -6 17 -1 25 16 12 25
-7 4 -9 3 -5 -4z"/>
<path d="M913 2991 c0 -11 5 -18 9 -15 4 3 5 11 1 19 -7 21 -12 19 -10 -4z"/>
<path d="M6074 3002 c3 -5 0 -13 -6 -15 -9 -4 -10 -6 -1 -6 17 -1 25 16 12 25
-7 4 -9 3 -5 -4z"/>
<path d="M913 2751 c0 -11 5 -18 9 -15 4 3 5 11 1 19 -7 21 -12 19 -10 -4z"/>
<path d="M6067 2719 c7 -7 15 -10 18 -7 3 3 -2 9 -12 12 -14 6 -15 5 -6 -5z"/>
<path d="M6067 2669 c7 -7 15 -10 18 -7 3 3 -2 9 -12 12 -14 6 -15 5 -6 -5z"/>
<path d="M6067 2479 c7 -7 15 -10 18 -7 3 3 -2 9 -12 12 -14 6 -15 5 -6 -5z"/>
<path d="M6067 2429 c7 -7 15 -10 18 -7 3 3 -2 9 -12 12 -14 6 -15 5 -6 -5z"/>
<path d="M913 2351 c0 -11 5 -18 9 -15 4 3 5 11 1 19 -7 21 -12 19 -10 -4z"/>
<path d="M6060 2246 c0 -2 7 -7 16 -10 8 -3 12 -2 9 4 -6 10 -25 14 -25 6z"/>
<path d="M6070 2190 c-9 -6 -10 -10 -3 -10 6 0 15 5 18 10 8 12 4 12 -15 0z"/>
<path d="M913 2111 c0 -11 5 -18 9 -15 4 3 5 11 1 19 -7 21 -12 19 -10 -4z"/>
<path d="M6074 2042 c3 -5 0 -13 -6 -15 -9 -4 -10 -6 -1 -6 17 -1 25 16 12 25
-7 4 -9 3 -5 -4z"/>
<path d="M6065 1881 c-3 -5 -2 -12 3 -15 5 -3 9 1 9 9 0 17 -3 19 -12 6z"/>
<path d="M6064 1645 c1 -8 6 -18 11 -22 4 -4 5 -3 2 4 -4 6 -2 13 5 15 8 3 6
6 -4 10 -10 4 -15 2 -14 -7z"/>
<path d="M6035 1181 c-3 -5 -2 -12 3 -15 5 -3 9 1 9 9 0 17 -3 19 -12 6z"/>
<path d="M5995 1170 c-3 -5 -1 -10 4 -10 6 0 11 5 11 10 0 6 -2 10 -4 10 -3 0
-8 -4 -11 -10z"/>
<path d="M1055 1051 c-3 -5 -2 -12 3 -15 5 -3 9 1 9 9 0 17 -3 19 -12 6z"/>
<path d="M1194 965 c1 -14 6 -28 11 -33 4 -4 6 -2 2 3 -3 6 -2 17 4 25 6 10 9
11 9 3 0 -7 7 -13 15 -13 8 0 15 -4 15 -9 0 -6 9 -9 20 -8 11 1 20 5 20 9 0 8
-16 12 -32 9 -5 0 -8 4 -8 10 0 5 -4 8 -9 5 -5 -3 -14 1 -21 9 -18 22 -29 18
-26 -10z"/>
<path d="M1842 945 c4 -5 3 -14 -3 -21 -7 -9 -6 -12 8 -10 22 3 24 27 3 34 -8
3 -12 1 -8 -3z"/>
<path d="M3762 945 c4 -5 3 -14 -3 -21 -7 -9 -6 -12 8 -10 22 3 24 27 3 34 -8
3 -12 1 -8 -3z"/>
<path d="M1926 923 c-6 -14 -5 -15 5 -6 7 7 10 15 7 18 -3 3 -9 -2 -12 -12z"/>
<path d="M2090 931 c0 -7 -5 -9 -12 -5 -7 5 -8 3 -3 -5 5 -9 10 -10 18 -2 6 6
8 14 4 18 -4 3 -7 1 -7 -6z"/>
<path d="M2356 927 c3 -10 9 -15 12 -12 3 3 0 11 -7 18 -10 9 -11 8 -5 -6z"/>
<path d="M2406 927 c3 -10 9 -15 12 -12 3 3 0 11 -7 18 -10 9 -11 8 -5 -6z"/>
<path d="M2596 927 c3 -10 9 -15 12 -12 3 3 0 11 -7 18 -10 9 -11 8 -5 -6z"/>
<path d="M2646 927 c3 -10 9 -15 12 -12 3 3 0 11 -7 18 -10 9 -11 8 -5 -6z"/>
<path d="M2830 931 c0 -6 4 -13 10 -16 6 -3 7 1 4 9 -7 18 -14 21 -14 7z"/>
<path d="M2886 923 c-6 -14 -5 -15 5 -6 7 7 10 15 7 18 -3 3 -9 -2 -12 -12z"/>
<path d="M3050 931 c0 -7 -5 -9 -12 -5 -7 5 -8 3 -3 -5 5 -9 10 -10 18 -2 6 6
8 14 4 18 -4 3 -7 1 -7 -6z"/>
<path d="M3196 932 c-3 -5 1 -9 9 -9 8 0 12 4 9 9 -3 4 -7 8 -9 8 -2 0 -6 -4
-9 -8z"/>
<path d="M4006 927 c3 -10 9 -15 12 -12 3 3 0 11 -7 18 -10 9 -11 8 -5 -6z"/>
<path d="M4243 927 c0 -8 6 -14 14 -14 9 0 10 4 2 14 -6 7 -12 13 -14 13 -1 0
-2 -6 -2 -13z"/>
<path d="M4646 927 c3 -10 9 -15 12 -12 3 3 0 11 -7 18 -10 9 -11 8 -5 -6z"/>
<path d="M4883 927 c0 -8 6 -14 14 -14 9 0 10 4 2 14 -6 7 -12 13 -14 13 -1 0
-2 -6 -2 -13z"/>
<path d="M5286 927 c3 -10 9 -15 12 -12 3 3 0 11 -7 18 -10 9 -11 8 -5 -6z"/>
<path d="M1646 922 c-3 -5 1 -9 9 -9 8 0 12 4 9 9 -3 4 -7 8 -9 8 -2 0 -6 -4
-9 -8z"/>
<path d="M3566 922 c-3 -5 1 -9 9 -9 8 0 12 4 9 9 -3 4 -7 8 -9 8 -2 0 -6 -4
-9 -8z"/>
<path d="M3926 922 c-3 -5 1 -9 9 -9 8 0 12 4 9 9 -3 4 -7 8 -9 8 -2 0 -6 -4
-9 -8z"/>
<path d="M4046 922 c-3 -5 1 -9 9 -9 8 0 12 4 9 9 -3 4 -7 8 -9 8 -2 0 -6 -4
-9 -8z"/>
<path d="M4566 922 c-3 -5 1 -9 9 -9 8 0 12 4 9 9 -3 4 -7 8 -9 8 -2 0 -6 -4
-9 -8z"/>
<path d="M4686 922 c-3 -5 1 -9 9 -9 8 0 12 4 9 9 -3 4 -7 8 -9 8 -2 0 -6 -4
-9 -8z"/>
<path d="M5206 922 c-3 -5 1 -9 9 -9 8 0 12 4 9 9 -3 4 -7 8 -9 8 -2 0 -6 -4
-9 -8z"/>
<path d="M5326 922 c-3 -5 1 -9 9 -9 8 0 12 4 9 9 -3 4 -7 8 -9 8 -2 0 -6 -4
-9 -8z"/>
</g>
</svg>
